%TF.GenerationSoftware,KiCad,Pcbnew,7.0.2*%
%TF.CreationDate,2023-05-27T14:00:09+09:30*%
%TF.ProjectId,STM32_DEVBOARD,53544d33-325f-4444-9556-424f4152442e,1*%
%TF.SameCoordinates,Original*%
%TF.FileFunction,Copper,L2,Bot*%
%TF.FilePolarity,Positive*%
%FSLAX46Y46*%
G04 Gerber Fmt 4.6, Leading zero omitted, Abs format (unit mm)*
G04 Created by KiCad (PCBNEW 7.0.2) date 2023-05-27 14:00:09*
%MOMM*%
%LPD*%
G01*
G04 APERTURE LIST*
%ADD10C,0.100000*%
%ADD11C,0.150000*%
%ADD12C,0.300000*%
%ADD13C,0.400000*%
%TA.AperFunction,ComponentPad*%
%ADD14R,1.600000X1.600000*%
%TD*%
%TA.AperFunction,ComponentPad*%
%ADD15C,1.600000*%
%TD*%
%TA.AperFunction,ComponentPad*%
%ADD16O,1.000000X1.600000*%
%TD*%
%TA.AperFunction,ComponentPad*%
%ADD17O,1.000000X2.100000*%
%TD*%
%TA.AperFunction,ComponentPad*%
%ADD18R,1.000000X1.000000*%
%TD*%
%TA.AperFunction,ComponentPad*%
%ADD19O,1.000000X1.000000*%
%TD*%
%TA.AperFunction,ComponentPad*%
%ADD20C,8.600000*%
%TD*%
%TA.AperFunction,ComponentPad*%
%ADD21R,2.400000X2.400000*%
%TD*%
%TA.AperFunction,ComponentPad*%
%ADD22C,2.400000*%
%TD*%
%TA.AperFunction,ViaPad*%
%ADD23C,0.800000*%
%TD*%
%TA.AperFunction,Conductor*%
%ADD24C,0.250000*%
%TD*%
%TA.AperFunction,Conductor*%
%ADD25C,0.300000*%
%TD*%
%TA.AperFunction,Conductor*%
%ADD26C,0.500000*%
%TD*%
G04 APERTURE END LIST*
D10*
D11*
X177002200Y-166007200D02*
X285002200Y-166007200D01*
X285002200Y-198007200D01*
X177002200Y-198007200D01*
X177002200Y-166007200D01*
D10*
D11*
X10000000Y-10000000D02*
X287002200Y-10000000D01*
X287002200Y-200007200D01*
X10000000Y-200007200D01*
X10000000Y-10000000D01*
D10*
D11*
X12000000Y-12000000D02*
X285002200Y-12000000D01*
X285002200Y-198007200D01*
X12000000Y-198007200D01*
X12000000Y-12000000D01*
D10*
D11*
X60000000Y-12000000D02*
X60000000Y-10000000D01*
D10*
D11*
X110000000Y-12000000D02*
X110000000Y-10000000D01*
D10*
D11*
X160000000Y-12000000D02*
X160000000Y-10000000D01*
D10*
D11*
X210000000Y-12000000D02*
X210000000Y-10000000D01*
D10*
D11*
X260000000Y-12000000D02*
X260000000Y-10000000D01*
D10*
D11*
X35990476Y-11601404D02*
X35247619Y-11601404D01*
X35619047Y-11601404D02*
X35619047Y-10301404D01*
X35619047Y-10301404D02*
X35495238Y-10487119D01*
X35495238Y-10487119D02*
X35371428Y-10610928D01*
X35371428Y-10610928D02*
X35247619Y-10672833D01*
D10*
D11*
X85247619Y-10425214D02*
X85309523Y-10363309D01*
X85309523Y-10363309D02*
X85433333Y-10301404D01*
X85433333Y-10301404D02*
X85742857Y-10301404D01*
X85742857Y-10301404D02*
X85866666Y-10363309D01*
X85866666Y-10363309D02*
X85928571Y-10425214D01*
X85928571Y-10425214D02*
X85990476Y-10549023D01*
X85990476Y-10549023D02*
X85990476Y-10672833D01*
X85990476Y-10672833D02*
X85928571Y-10858547D01*
X85928571Y-10858547D02*
X85185714Y-11601404D01*
X85185714Y-11601404D02*
X85990476Y-11601404D01*
D10*
D11*
X135185714Y-10301404D02*
X135990476Y-10301404D01*
X135990476Y-10301404D02*
X135557142Y-10796642D01*
X135557142Y-10796642D02*
X135742857Y-10796642D01*
X135742857Y-10796642D02*
X135866666Y-10858547D01*
X135866666Y-10858547D02*
X135928571Y-10920452D01*
X135928571Y-10920452D02*
X135990476Y-11044261D01*
X135990476Y-11044261D02*
X135990476Y-11353785D01*
X135990476Y-11353785D02*
X135928571Y-11477595D01*
X135928571Y-11477595D02*
X135866666Y-11539500D01*
X135866666Y-11539500D02*
X135742857Y-11601404D01*
X135742857Y-11601404D02*
X135371428Y-11601404D01*
X135371428Y-11601404D02*
X135247619Y-11539500D01*
X135247619Y-11539500D02*
X135185714Y-11477595D01*
D10*
D11*
X185866666Y-10734738D02*
X185866666Y-11601404D01*
X185557142Y-10239500D02*
X185247619Y-11168071D01*
X185247619Y-11168071D02*
X186052380Y-11168071D01*
D10*
D11*
X235928571Y-10301404D02*
X235309523Y-10301404D01*
X235309523Y-10301404D02*
X235247619Y-10920452D01*
X235247619Y-10920452D02*
X235309523Y-10858547D01*
X235309523Y-10858547D02*
X235433333Y-10796642D01*
X235433333Y-10796642D02*
X235742857Y-10796642D01*
X235742857Y-10796642D02*
X235866666Y-10858547D01*
X235866666Y-10858547D02*
X235928571Y-10920452D01*
X235928571Y-10920452D02*
X235990476Y-11044261D01*
X235990476Y-11044261D02*
X235990476Y-11353785D01*
X235990476Y-11353785D02*
X235928571Y-11477595D01*
X235928571Y-11477595D02*
X235866666Y-11539500D01*
X235866666Y-11539500D02*
X235742857Y-11601404D01*
X235742857Y-11601404D02*
X235433333Y-11601404D01*
X235433333Y-11601404D02*
X235309523Y-11539500D01*
X235309523Y-11539500D02*
X235247619Y-11477595D01*
D10*
D11*
X285866666Y-10301404D02*
X285619047Y-10301404D01*
X285619047Y-10301404D02*
X285495238Y-10363309D01*
X285495238Y-10363309D02*
X285433333Y-10425214D01*
X285433333Y-10425214D02*
X285309523Y-10610928D01*
X285309523Y-10610928D02*
X285247619Y-10858547D01*
X285247619Y-10858547D02*
X285247619Y-11353785D01*
X285247619Y-11353785D02*
X285309523Y-11477595D01*
X285309523Y-11477595D02*
X285371428Y-11539500D01*
X285371428Y-11539500D02*
X285495238Y-11601404D01*
X285495238Y-11601404D02*
X285742857Y-11601404D01*
X285742857Y-11601404D02*
X285866666Y-11539500D01*
X285866666Y-11539500D02*
X285928571Y-11477595D01*
X285928571Y-11477595D02*
X285990476Y-11353785D01*
X285990476Y-11353785D02*
X285990476Y-11044261D01*
X285990476Y-11044261D02*
X285928571Y-10920452D01*
X285928571Y-10920452D02*
X285866666Y-10858547D01*
X285866666Y-10858547D02*
X285742857Y-10796642D01*
X285742857Y-10796642D02*
X285495238Y-10796642D01*
X285495238Y-10796642D02*
X285371428Y-10858547D01*
X285371428Y-10858547D02*
X285309523Y-10920452D01*
X285309523Y-10920452D02*
X285247619Y-11044261D01*
D10*
D11*
X60000000Y-198007200D02*
X60000000Y-200007200D01*
D10*
D11*
X110000000Y-198007200D02*
X110000000Y-200007200D01*
D10*
D11*
X160000000Y-198007200D02*
X160000000Y-200007200D01*
D10*
D11*
X210000000Y-198007200D02*
X210000000Y-200007200D01*
D10*
D11*
X260000000Y-198007200D02*
X260000000Y-200007200D01*
D10*
D11*
X35990476Y-199608604D02*
X35247619Y-199608604D01*
X35619047Y-199608604D02*
X35619047Y-198308604D01*
X35619047Y-198308604D02*
X35495238Y-198494319D01*
X35495238Y-198494319D02*
X35371428Y-198618128D01*
X35371428Y-198618128D02*
X35247619Y-198680033D01*
D10*
D11*
X85247619Y-198432414D02*
X85309523Y-198370509D01*
X85309523Y-198370509D02*
X85433333Y-198308604D01*
X85433333Y-198308604D02*
X85742857Y-198308604D01*
X85742857Y-198308604D02*
X85866666Y-198370509D01*
X85866666Y-198370509D02*
X85928571Y-198432414D01*
X85928571Y-198432414D02*
X85990476Y-198556223D01*
X85990476Y-198556223D02*
X85990476Y-198680033D01*
X85990476Y-198680033D02*
X85928571Y-198865747D01*
X85928571Y-198865747D02*
X85185714Y-199608604D01*
X85185714Y-199608604D02*
X85990476Y-199608604D01*
D10*
D11*
X135185714Y-198308604D02*
X135990476Y-198308604D01*
X135990476Y-198308604D02*
X135557142Y-198803842D01*
X135557142Y-198803842D02*
X135742857Y-198803842D01*
X135742857Y-198803842D02*
X135866666Y-198865747D01*
X135866666Y-198865747D02*
X135928571Y-198927652D01*
X135928571Y-198927652D02*
X135990476Y-199051461D01*
X135990476Y-199051461D02*
X135990476Y-199360985D01*
X135990476Y-199360985D02*
X135928571Y-199484795D01*
X135928571Y-199484795D02*
X135866666Y-199546700D01*
X135866666Y-199546700D02*
X135742857Y-199608604D01*
X135742857Y-199608604D02*
X135371428Y-199608604D01*
X135371428Y-199608604D02*
X135247619Y-199546700D01*
X135247619Y-199546700D02*
X135185714Y-199484795D01*
D10*
D11*
X185866666Y-198741938D02*
X185866666Y-199608604D01*
X185557142Y-198246700D02*
X185247619Y-199175271D01*
X185247619Y-199175271D02*
X186052380Y-199175271D01*
D10*
D11*
X235928571Y-198308604D02*
X235309523Y-198308604D01*
X235309523Y-198308604D02*
X235247619Y-198927652D01*
X235247619Y-198927652D02*
X235309523Y-198865747D01*
X235309523Y-198865747D02*
X235433333Y-198803842D01*
X235433333Y-198803842D02*
X235742857Y-198803842D01*
X235742857Y-198803842D02*
X235866666Y-198865747D01*
X235866666Y-198865747D02*
X235928571Y-198927652D01*
X235928571Y-198927652D02*
X235990476Y-199051461D01*
X235990476Y-199051461D02*
X235990476Y-199360985D01*
X235990476Y-199360985D02*
X235928571Y-199484795D01*
X235928571Y-199484795D02*
X235866666Y-199546700D01*
X235866666Y-199546700D02*
X235742857Y-199608604D01*
X235742857Y-199608604D02*
X235433333Y-199608604D01*
X235433333Y-199608604D02*
X235309523Y-199546700D01*
X235309523Y-199546700D02*
X235247619Y-199484795D01*
D10*
D11*
X285866666Y-198308604D02*
X285619047Y-198308604D01*
X285619047Y-198308604D02*
X285495238Y-198370509D01*
X285495238Y-198370509D02*
X285433333Y-198432414D01*
X285433333Y-198432414D02*
X285309523Y-198618128D01*
X285309523Y-198618128D02*
X285247619Y-198865747D01*
X285247619Y-198865747D02*
X285247619Y-199360985D01*
X285247619Y-199360985D02*
X285309523Y-199484795D01*
X285309523Y-199484795D02*
X285371428Y-199546700D01*
X285371428Y-199546700D02*
X285495238Y-199608604D01*
X285495238Y-199608604D02*
X285742857Y-199608604D01*
X285742857Y-199608604D02*
X285866666Y-199546700D01*
X285866666Y-199546700D02*
X285928571Y-199484795D01*
X285928571Y-199484795D02*
X285990476Y-199360985D01*
X285990476Y-199360985D02*
X285990476Y-199051461D01*
X285990476Y-199051461D02*
X285928571Y-198927652D01*
X285928571Y-198927652D02*
X285866666Y-198865747D01*
X285866666Y-198865747D02*
X285742857Y-198803842D01*
X285742857Y-198803842D02*
X285495238Y-198803842D01*
X285495238Y-198803842D02*
X285371428Y-198865747D01*
X285371428Y-198865747D02*
X285309523Y-198927652D01*
X285309523Y-198927652D02*
X285247619Y-199051461D01*
D10*
D11*
X10000000Y-60000000D02*
X12000000Y-60000000D01*
D10*
D11*
X10000000Y-110000000D02*
X12000000Y-110000000D01*
D10*
D11*
X10000000Y-160000000D02*
X12000000Y-160000000D01*
D10*
D11*
X10690476Y-35229976D02*
X11309523Y-35229976D01*
X10566666Y-35601404D02*
X10999999Y-34301404D01*
X10999999Y-34301404D02*
X11433333Y-35601404D01*
D10*
D11*
X11092857Y-84920452D02*
X11278571Y-84982357D01*
X11278571Y-84982357D02*
X11340476Y-85044261D01*
X11340476Y-85044261D02*
X11402380Y-85168071D01*
X11402380Y-85168071D02*
X11402380Y-85353785D01*
X11402380Y-85353785D02*
X11340476Y-85477595D01*
X11340476Y-85477595D02*
X11278571Y-85539500D01*
X11278571Y-85539500D02*
X11154761Y-85601404D01*
X11154761Y-85601404D02*
X10659523Y-85601404D01*
X10659523Y-85601404D02*
X10659523Y-84301404D01*
X10659523Y-84301404D02*
X11092857Y-84301404D01*
X11092857Y-84301404D02*
X11216666Y-84363309D01*
X11216666Y-84363309D02*
X11278571Y-84425214D01*
X11278571Y-84425214D02*
X11340476Y-84549023D01*
X11340476Y-84549023D02*
X11340476Y-84672833D01*
X11340476Y-84672833D02*
X11278571Y-84796642D01*
X11278571Y-84796642D02*
X11216666Y-84858547D01*
X11216666Y-84858547D02*
X11092857Y-84920452D01*
X11092857Y-84920452D02*
X10659523Y-84920452D01*
D10*
D11*
X11402380Y-135477595D02*
X11340476Y-135539500D01*
X11340476Y-135539500D02*
X11154761Y-135601404D01*
X11154761Y-135601404D02*
X11030952Y-135601404D01*
X11030952Y-135601404D02*
X10845238Y-135539500D01*
X10845238Y-135539500D02*
X10721428Y-135415690D01*
X10721428Y-135415690D02*
X10659523Y-135291880D01*
X10659523Y-135291880D02*
X10597619Y-135044261D01*
X10597619Y-135044261D02*
X10597619Y-134858547D01*
X10597619Y-134858547D02*
X10659523Y-134610928D01*
X10659523Y-134610928D02*
X10721428Y-134487119D01*
X10721428Y-134487119D02*
X10845238Y-134363309D01*
X10845238Y-134363309D02*
X11030952Y-134301404D01*
X11030952Y-134301404D02*
X11154761Y-134301404D01*
X11154761Y-134301404D02*
X11340476Y-134363309D01*
X11340476Y-134363309D02*
X11402380Y-134425214D01*
D10*
D11*
X10659523Y-185601404D02*
X10659523Y-184301404D01*
X10659523Y-184301404D02*
X10969047Y-184301404D01*
X10969047Y-184301404D02*
X11154761Y-184363309D01*
X11154761Y-184363309D02*
X11278571Y-184487119D01*
X11278571Y-184487119D02*
X11340476Y-184610928D01*
X11340476Y-184610928D02*
X11402380Y-184858547D01*
X11402380Y-184858547D02*
X11402380Y-185044261D01*
X11402380Y-185044261D02*
X11340476Y-185291880D01*
X11340476Y-185291880D02*
X11278571Y-185415690D01*
X11278571Y-185415690D02*
X11154761Y-185539500D01*
X11154761Y-185539500D02*
X10969047Y-185601404D01*
X10969047Y-185601404D02*
X10659523Y-185601404D01*
D10*
D11*
X287002200Y-60000000D02*
X285002200Y-60000000D01*
D10*
D11*
X287002200Y-110000000D02*
X285002200Y-110000000D01*
D10*
D11*
X287002200Y-160000000D02*
X285002200Y-160000000D01*
D10*
D11*
X285692676Y-35229976D02*
X286311723Y-35229976D01*
X285568866Y-35601404D02*
X286002199Y-34301404D01*
X286002199Y-34301404D02*
X286435533Y-35601404D01*
D10*
D11*
X286095057Y-84920452D02*
X286280771Y-84982357D01*
X286280771Y-84982357D02*
X286342676Y-85044261D01*
X286342676Y-85044261D02*
X286404580Y-85168071D01*
X286404580Y-85168071D02*
X286404580Y-85353785D01*
X286404580Y-85353785D02*
X286342676Y-85477595D01*
X286342676Y-85477595D02*
X286280771Y-85539500D01*
X286280771Y-85539500D02*
X286156961Y-85601404D01*
X286156961Y-85601404D02*
X285661723Y-85601404D01*
X285661723Y-85601404D02*
X285661723Y-84301404D01*
X285661723Y-84301404D02*
X286095057Y-84301404D01*
X286095057Y-84301404D02*
X286218866Y-84363309D01*
X286218866Y-84363309D02*
X286280771Y-84425214D01*
X286280771Y-84425214D02*
X286342676Y-84549023D01*
X286342676Y-84549023D02*
X286342676Y-84672833D01*
X286342676Y-84672833D02*
X286280771Y-84796642D01*
X286280771Y-84796642D02*
X286218866Y-84858547D01*
X286218866Y-84858547D02*
X286095057Y-84920452D01*
X286095057Y-84920452D02*
X285661723Y-84920452D01*
D10*
D11*
X286404580Y-135477595D02*
X286342676Y-135539500D01*
X286342676Y-135539500D02*
X286156961Y-135601404D01*
X286156961Y-135601404D02*
X286033152Y-135601404D01*
X286033152Y-135601404D02*
X285847438Y-135539500D01*
X285847438Y-135539500D02*
X285723628Y-135415690D01*
X285723628Y-135415690D02*
X285661723Y-135291880D01*
X285661723Y-135291880D02*
X285599819Y-135044261D01*
X285599819Y-135044261D02*
X285599819Y-134858547D01*
X285599819Y-134858547D02*
X285661723Y-134610928D01*
X285661723Y-134610928D02*
X285723628Y-134487119D01*
X285723628Y-134487119D02*
X285847438Y-134363309D01*
X285847438Y-134363309D02*
X286033152Y-134301404D01*
X286033152Y-134301404D02*
X286156961Y-134301404D01*
X286156961Y-134301404D02*
X286342676Y-134363309D01*
X286342676Y-134363309D02*
X286404580Y-134425214D01*
D10*
D11*
X285661723Y-185601404D02*
X285661723Y-184301404D01*
X285661723Y-184301404D02*
X285971247Y-184301404D01*
X285971247Y-184301404D02*
X286156961Y-184363309D01*
X286156961Y-184363309D02*
X286280771Y-184487119D01*
X286280771Y-184487119D02*
X286342676Y-184610928D01*
X286342676Y-184610928D02*
X286404580Y-184858547D01*
X286404580Y-184858547D02*
X286404580Y-185044261D01*
X286404580Y-185044261D02*
X286342676Y-185291880D01*
X286342676Y-185291880D02*
X286280771Y-185415690D01*
X286280771Y-185415690D02*
X286156961Y-185539500D01*
X286156961Y-185539500D02*
X285971247Y-185601404D01*
X285971247Y-185601404D02*
X285661723Y-185601404D01*
D10*
D11*
X200359342Y-193801128D02*
X200359342Y-192301128D01*
X200359342Y-192301128D02*
X200716485Y-192301128D01*
X200716485Y-192301128D02*
X200930771Y-192372557D01*
X200930771Y-192372557D02*
X201073628Y-192515414D01*
X201073628Y-192515414D02*
X201145057Y-192658271D01*
X201145057Y-192658271D02*
X201216485Y-192943985D01*
X201216485Y-192943985D02*
X201216485Y-193158271D01*
X201216485Y-193158271D02*
X201145057Y-193443985D01*
X201145057Y-193443985D02*
X201073628Y-193586842D01*
X201073628Y-193586842D02*
X200930771Y-193729700D01*
X200930771Y-193729700D02*
X200716485Y-193801128D01*
X200716485Y-193801128D02*
X200359342Y-193801128D01*
X202502200Y-193801128D02*
X202502200Y-193015414D01*
X202502200Y-193015414D02*
X202430771Y-192872557D01*
X202430771Y-192872557D02*
X202287914Y-192801128D01*
X202287914Y-192801128D02*
X202002200Y-192801128D01*
X202002200Y-192801128D02*
X201859342Y-192872557D01*
X202502200Y-193729700D02*
X202359342Y-193801128D01*
X202359342Y-193801128D02*
X202002200Y-193801128D01*
X202002200Y-193801128D02*
X201859342Y-193729700D01*
X201859342Y-193729700D02*
X201787914Y-193586842D01*
X201787914Y-193586842D02*
X201787914Y-193443985D01*
X201787914Y-193443985D02*
X201859342Y-193301128D01*
X201859342Y-193301128D02*
X202002200Y-193229700D01*
X202002200Y-193229700D02*
X202359342Y-193229700D01*
X202359342Y-193229700D02*
X202502200Y-193158271D01*
X203002200Y-192801128D02*
X203573628Y-192801128D01*
X203216485Y-192301128D02*
X203216485Y-193586842D01*
X203216485Y-193586842D02*
X203287914Y-193729700D01*
X203287914Y-193729700D02*
X203430771Y-193801128D01*
X203430771Y-193801128D02*
X203573628Y-193801128D01*
X204645057Y-193729700D02*
X204502200Y-193801128D01*
X204502200Y-193801128D02*
X204216486Y-193801128D01*
X204216486Y-193801128D02*
X204073628Y-193729700D01*
X204073628Y-193729700D02*
X204002200Y-193586842D01*
X204002200Y-193586842D02*
X204002200Y-193015414D01*
X204002200Y-193015414D02*
X204073628Y-192872557D01*
X204073628Y-192872557D02*
X204216486Y-192801128D01*
X204216486Y-192801128D02*
X204502200Y-192801128D01*
X204502200Y-192801128D02*
X204645057Y-192872557D01*
X204645057Y-192872557D02*
X204716486Y-193015414D01*
X204716486Y-193015414D02*
X204716486Y-193158271D01*
X204716486Y-193158271D02*
X204002200Y-193301128D01*
X205359342Y-193658271D02*
X205430771Y-193729700D01*
X205430771Y-193729700D02*
X205359342Y-193801128D01*
X205359342Y-193801128D02*
X205287914Y-193729700D01*
X205287914Y-193729700D02*
X205359342Y-193658271D01*
X205359342Y-193658271D02*
X205359342Y-193801128D01*
X205359342Y-192872557D02*
X205430771Y-192943985D01*
X205430771Y-192943985D02*
X205359342Y-193015414D01*
X205359342Y-193015414D02*
X205287914Y-192943985D01*
X205287914Y-192943985D02*
X205359342Y-192872557D01*
X205359342Y-192872557D02*
X205359342Y-193015414D01*
X207145057Y-192443985D02*
X207216485Y-192372557D01*
X207216485Y-192372557D02*
X207359343Y-192301128D01*
X207359343Y-192301128D02*
X207716485Y-192301128D01*
X207716485Y-192301128D02*
X207859343Y-192372557D01*
X207859343Y-192372557D02*
X207930771Y-192443985D01*
X207930771Y-192443985D02*
X208002200Y-192586842D01*
X208002200Y-192586842D02*
X208002200Y-192729700D01*
X208002200Y-192729700D02*
X207930771Y-192943985D01*
X207930771Y-192943985D02*
X207073628Y-193801128D01*
X207073628Y-193801128D02*
X208002200Y-193801128D01*
X208930771Y-192301128D02*
X209073628Y-192301128D01*
X209073628Y-192301128D02*
X209216485Y-192372557D01*
X209216485Y-192372557D02*
X209287914Y-192443985D01*
X209287914Y-192443985D02*
X209359342Y-192586842D01*
X209359342Y-192586842D02*
X209430771Y-192872557D01*
X209430771Y-192872557D02*
X209430771Y-193229700D01*
X209430771Y-193229700D02*
X209359342Y-193515414D01*
X209359342Y-193515414D02*
X209287914Y-193658271D01*
X209287914Y-193658271D02*
X209216485Y-193729700D01*
X209216485Y-193729700D02*
X209073628Y-193801128D01*
X209073628Y-193801128D02*
X208930771Y-193801128D01*
X208930771Y-193801128D02*
X208787914Y-193729700D01*
X208787914Y-193729700D02*
X208716485Y-193658271D01*
X208716485Y-193658271D02*
X208645056Y-193515414D01*
X208645056Y-193515414D02*
X208573628Y-193229700D01*
X208573628Y-193229700D02*
X208573628Y-192872557D01*
X208573628Y-192872557D02*
X208645056Y-192586842D01*
X208645056Y-192586842D02*
X208716485Y-192443985D01*
X208716485Y-192443985D02*
X208787914Y-192372557D01*
X208787914Y-192372557D02*
X208930771Y-192301128D01*
X210002199Y-192443985D02*
X210073627Y-192372557D01*
X210073627Y-192372557D02*
X210216485Y-192301128D01*
X210216485Y-192301128D02*
X210573627Y-192301128D01*
X210573627Y-192301128D02*
X210716485Y-192372557D01*
X210716485Y-192372557D02*
X210787913Y-192443985D01*
X210787913Y-192443985D02*
X210859342Y-192586842D01*
X210859342Y-192586842D02*
X210859342Y-192729700D01*
X210859342Y-192729700D02*
X210787913Y-192943985D01*
X210787913Y-192943985D02*
X209930770Y-193801128D01*
X209930770Y-193801128D02*
X210859342Y-193801128D01*
X211359341Y-192301128D02*
X212287913Y-192301128D01*
X212287913Y-192301128D02*
X211787913Y-192872557D01*
X211787913Y-192872557D02*
X212002198Y-192872557D01*
X212002198Y-192872557D02*
X212145056Y-192943985D01*
X212145056Y-192943985D02*
X212216484Y-193015414D01*
X212216484Y-193015414D02*
X212287913Y-193158271D01*
X212287913Y-193158271D02*
X212287913Y-193515414D01*
X212287913Y-193515414D02*
X212216484Y-193658271D01*
X212216484Y-193658271D02*
X212145056Y-193729700D01*
X212145056Y-193729700D02*
X212002198Y-193801128D01*
X212002198Y-193801128D02*
X211573627Y-193801128D01*
X211573627Y-193801128D02*
X211430770Y-193729700D01*
X211430770Y-193729700D02*
X211359341Y-193658271D01*
X212930769Y-193229700D02*
X214073627Y-193229700D01*
X215073627Y-192301128D02*
X215216484Y-192301128D01*
X215216484Y-192301128D02*
X215359341Y-192372557D01*
X215359341Y-192372557D02*
X215430770Y-192443985D01*
X215430770Y-192443985D02*
X215502198Y-192586842D01*
X215502198Y-192586842D02*
X215573627Y-192872557D01*
X215573627Y-192872557D02*
X215573627Y-193229700D01*
X215573627Y-193229700D02*
X215502198Y-193515414D01*
X215502198Y-193515414D02*
X215430770Y-193658271D01*
X215430770Y-193658271D02*
X215359341Y-193729700D01*
X215359341Y-193729700D02*
X215216484Y-193801128D01*
X215216484Y-193801128D02*
X215073627Y-193801128D01*
X215073627Y-193801128D02*
X214930770Y-193729700D01*
X214930770Y-193729700D02*
X214859341Y-193658271D01*
X214859341Y-193658271D02*
X214787912Y-193515414D01*
X214787912Y-193515414D02*
X214716484Y-193229700D01*
X214716484Y-193229700D02*
X214716484Y-192872557D01*
X214716484Y-192872557D02*
X214787912Y-192586842D01*
X214787912Y-192586842D02*
X214859341Y-192443985D01*
X214859341Y-192443985D02*
X214930770Y-192372557D01*
X214930770Y-192372557D02*
X215073627Y-192301128D01*
X216930769Y-192301128D02*
X216216483Y-192301128D01*
X216216483Y-192301128D02*
X216145055Y-193015414D01*
X216145055Y-193015414D02*
X216216483Y-192943985D01*
X216216483Y-192943985D02*
X216359341Y-192872557D01*
X216359341Y-192872557D02*
X216716483Y-192872557D01*
X216716483Y-192872557D02*
X216859341Y-192943985D01*
X216859341Y-192943985D02*
X216930769Y-193015414D01*
X216930769Y-193015414D02*
X217002198Y-193158271D01*
X217002198Y-193158271D02*
X217002198Y-193515414D01*
X217002198Y-193515414D02*
X216930769Y-193658271D01*
X216930769Y-193658271D02*
X216859341Y-193729700D01*
X216859341Y-193729700D02*
X216716483Y-193801128D01*
X216716483Y-193801128D02*
X216359341Y-193801128D01*
X216359341Y-193801128D02*
X216216483Y-193729700D01*
X216216483Y-193729700D02*
X216145055Y-193658271D01*
X217645054Y-193229700D02*
X218787912Y-193229700D01*
X219430769Y-192443985D02*
X219502197Y-192372557D01*
X219502197Y-192372557D02*
X219645055Y-192301128D01*
X219645055Y-192301128D02*
X220002197Y-192301128D01*
X220002197Y-192301128D02*
X220145055Y-192372557D01*
X220145055Y-192372557D02*
X220216483Y-192443985D01*
X220216483Y-192443985D02*
X220287912Y-192586842D01*
X220287912Y-192586842D02*
X220287912Y-192729700D01*
X220287912Y-192729700D02*
X220216483Y-192943985D01*
X220216483Y-192943985D02*
X219359340Y-193801128D01*
X219359340Y-193801128D02*
X220287912Y-193801128D01*
X221716483Y-193801128D02*
X220859340Y-193801128D01*
X221287911Y-193801128D02*
X221287911Y-192301128D01*
X221287911Y-192301128D02*
X221145054Y-192515414D01*
X221145054Y-192515414D02*
X221002197Y-192658271D01*
X221002197Y-192658271D02*
X220859340Y-192729700D01*
D10*
D11*
X177002200Y-194507200D02*
X285002200Y-194507200D01*
D10*
D11*
X178359342Y-196601128D02*
X178359342Y-195101128D01*
X179216485Y-196601128D02*
X178573628Y-195743985D01*
X179216485Y-195101128D02*
X178359342Y-195958271D01*
X179859342Y-196601128D02*
X179859342Y-195601128D01*
X179859342Y-195101128D02*
X179787914Y-195172557D01*
X179787914Y-195172557D02*
X179859342Y-195243985D01*
X179859342Y-195243985D02*
X179930771Y-195172557D01*
X179930771Y-195172557D02*
X179859342Y-195101128D01*
X179859342Y-195101128D02*
X179859342Y-195243985D01*
X181430771Y-196458271D02*
X181359343Y-196529700D01*
X181359343Y-196529700D02*
X181145057Y-196601128D01*
X181145057Y-196601128D02*
X181002200Y-196601128D01*
X181002200Y-196601128D02*
X180787914Y-196529700D01*
X180787914Y-196529700D02*
X180645057Y-196386842D01*
X180645057Y-196386842D02*
X180573628Y-196243985D01*
X180573628Y-196243985D02*
X180502200Y-195958271D01*
X180502200Y-195958271D02*
X180502200Y-195743985D01*
X180502200Y-195743985D02*
X180573628Y-195458271D01*
X180573628Y-195458271D02*
X180645057Y-195315414D01*
X180645057Y-195315414D02*
X180787914Y-195172557D01*
X180787914Y-195172557D02*
X181002200Y-195101128D01*
X181002200Y-195101128D02*
X181145057Y-195101128D01*
X181145057Y-195101128D02*
X181359343Y-195172557D01*
X181359343Y-195172557D02*
X181430771Y-195243985D01*
X182716486Y-196601128D02*
X182716486Y-195815414D01*
X182716486Y-195815414D02*
X182645057Y-195672557D01*
X182645057Y-195672557D02*
X182502200Y-195601128D01*
X182502200Y-195601128D02*
X182216486Y-195601128D01*
X182216486Y-195601128D02*
X182073628Y-195672557D01*
X182716486Y-196529700D02*
X182573628Y-196601128D01*
X182573628Y-196601128D02*
X182216486Y-196601128D01*
X182216486Y-196601128D02*
X182073628Y-196529700D01*
X182073628Y-196529700D02*
X182002200Y-196386842D01*
X182002200Y-196386842D02*
X182002200Y-196243985D01*
X182002200Y-196243985D02*
X182073628Y-196101128D01*
X182073628Y-196101128D02*
X182216486Y-196029700D01*
X182216486Y-196029700D02*
X182573628Y-196029700D01*
X182573628Y-196029700D02*
X182716486Y-195958271D01*
X184073629Y-196601128D02*
X184073629Y-195101128D01*
X184073629Y-196529700D02*
X183930771Y-196601128D01*
X183930771Y-196601128D02*
X183645057Y-196601128D01*
X183645057Y-196601128D02*
X183502200Y-196529700D01*
X183502200Y-196529700D02*
X183430771Y-196458271D01*
X183430771Y-196458271D02*
X183359343Y-196315414D01*
X183359343Y-196315414D02*
X183359343Y-195886842D01*
X183359343Y-195886842D02*
X183430771Y-195743985D01*
X183430771Y-195743985D02*
X183502200Y-195672557D01*
X183502200Y-195672557D02*
X183645057Y-195601128D01*
X183645057Y-195601128D02*
X183930771Y-195601128D01*
X183930771Y-195601128D02*
X184073629Y-195672557D01*
X185930771Y-195815414D02*
X186430771Y-195815414D01*
X186645057Y-196601128D02*
X185930771Y-196601128D01*
X185930771Y-196601128D02*
X185930771Y-195101128D01*
X185930771Y-195101128D02*
X186645057Y-195101128D01*
X187287914Y-196458271D02*
X187359343Y-196529700D01*
X187359343Y-196529700D02*
X187287914Y-196601128D01*
X187287914Y-196601128D02*
X187216486Y-196529700D01*
X187216486Y-196529700D02*
X187287914Y-196458271D01*
X187287914Y-196458271D02*
X187287914Y-196601128D01*
X188002200Y-196601128D02*
X188002200Y-195101128D01*
X188002200Y-195101128D02*
X188359343Y-195101128D01*
X188359343Y-195101128D02*
X188573629Y-195172557D01*
X188573629Y-195172557D02*
X188716486Y-195315414D01*
X188716486Y-195315414D02*
X188787915Y-195458271D01*
X188787915Y-195458271D02*
X188859343Y-195743985D01*
X188859343Y-195743985D02*
X188859343Y-195958271D01*
X188859343Y-195958271D02*
X188787915Y-196243985D01*
X188787915Y-196243985D02*
X188716486Y-196386842D01*
X188716486Y-196386842D02*
X188573629Y-196529700D01*
X188573629Y-196529700D02*
X188359343Y-196601128D01*
X188359343Y-196601128D02*
X188002200Y-196601128D01*
X189502200Y-196458271D02*
X189573629Y-196529700D01*
X189573629Y-196529700D02*
X189502200Y-196601128D01*
X189502200Y-196601128D02*
X189430772Y-196529700D01*
X189430772Y-196529700D02*
X189502200Y-196458271D01*
X189502200Y-196458271D02*
X189502200Y-196601128D01*
X190145058Y-196172557D02*
X190859344Y-196172557D01*
X190002201Y-196601128D02*
X190502201Y-195101128D01*
X190502201Y-195101128D02*
X191002201Y-196601128D01*
X191502200Y-196458271D02*
X191573629Y-196529700D01*
X191573629Y-196529700D02*
X191502200Y-196601128D01*
X191502200Y-196601128D02*
X191430772Y-196529700D01*
X191430772Y-196529700D02*
X191502200Y-196458271D01*
X191502200Y-196458271D02*
X191502200Y-196601128D01*
X194502200Y-196601128D02*
X194502200Y-195101128D01*
X194645058Y-196029700D02*
X195073629Y-196601128D01*
X195073629Y-195601128D02*
X194502200Y-196172557D01*
X195716486Y-196601128D02*
X195716486Y-195601128D01*
X195716486Y-195101128D02*
X195645058Y-195172557D01*
X195645058Y-195172557D02*
X195716486Y-195243985D01*
X195716486Y-195243985D02*
X195787915Y-195172557D01*
X195787915Y-195172557D02*
X195716486Y-195101128D01*
X195716486Y-195101128D02*
X195716486Y-195243985D01*
X197073630Y-196529700D02*
X196930772Y-196601128D01*
X196930772Y-196601128D02*
X196645058Y-196601128D01*
X196645058Y-196601128D02*
X196502201Y-196529700D01*
X196502201Y-196529700D02*
X196430772Y-196458271D01*
X196430772Y-196458271D02*
X196359344Y-196315414D01*
X196359344Y-196315414D02*
X196359344Y-195886842D01*
X196359344Y-195886842D02*
X196430772Y-195743985D01*
X196430772Y-195743985D02*
X196502201Y-195672557D01*
X196502201Y-195672557D02*
X196645058Y-195601128D01*
X196645058Y-195601128D02*
X196930772Y-195601128D01*
X196930772Y-195601128D02*
X197073630Y-195672557D01*
X198359344Y-196601128D02*
X198359344Y-195815414D01*
X198359344Y-195815414D02*
X198287915Y-195672557D01*
X198287915Y-195672557D02*
X198145058Y-195601128D01*
X198145058Y-195601128D02*
X197859344Y-195601128D01*
X197859344Y-195601128D02*
X197716486Y-195672557D01*
X198359344Y-196529700D02*
X198216486Y-196601128D01*
X198216486Y-196601128D02*
X197859344Y-196601128D01*
X197859344Y-196601128D02*
X197716486Y-196529700D01*
X197716486Y-196529700D02*
X197645058Y-196386842D01*
X197645058Y-196386842D02*
X197645058Y-196243985D01*
X197645058Y-196243985D02*
X197716486Y-196101128D01*
X197716486Y-196101128D02*
X197859344Y-196029700D01*
X197859344Y-196029700D02*
X198216486Y-196029700D01*
X198216486Y-196029700D02*
X198359344Y-195958271D01*
X199716487Y-196601128D02*
X199716487Y-195101128D01*
X199716487Y-196529700D02*
X199573629Y-196601128D01*
X199573629Y-196601128D02*
X199287915Y-196601128D01*
X199287915Y-196601128D02*
X199145058Y-196529700D01*
X199145058Y-196529700D02*
X199073629Y-196458271D01*
X199073629Y-196458271D02*
X199002201Y-196315414D01*
X199002201Y-196315414D02*
X199002201Y-195886842D01*
X199002201Y-195886842D02*
X199073629Y-195743985D01*
X199073629Y-195743985D02*
X199145058Y-195672557D01*
X199145058Y-195672557D02*
X199287915Y-195601128D01*
X199287915Y-195601128D02*
X199573629Y-195601128D01*
X199573629Y-195601128D02*
X199716487Y-195672557D01*
X201430772Y-195101128D02*
X202430772Y-195101128D01*
X202430772Y-195101128D02*
X201787915Y-196601128D01*
X203002200Y-196458271D02*
X203073629Y-196529700D01*
X203073629Y-196529700D02*
X203002200Y-196601128D01*
X203002200Y-196601128D02*
X202930772Y-196529700D01*
X202930772Y-196529700D02*
X203002200Y-196458271D01*
X203002200Y-196458271D02*
X203002200Y-196601128D01*
X204002201Y-195101128D02*
X204145058Y-195101128D01*
X204145058Y-195101128D02*
X204287915Y-195172557D01*
X204287915Y-195172557D02*
X204359344Y-195243985D01*
X204359344Y-195243985D02*
X204430772Y-195386842D01*
X204430772Y-195386842D02*
X204502201Y-195672557D01*
X204502201Y-195672557D02*
X204502201Y-196029700D01*
X204502201Y-196029700D02*
X204430772Y-196315414D01*
X204430772Y-196315414D02*
X204359344Y-196458271D01*
X204359344Y-196458271D02*
X204287915Y-196529700D01*
X204287915Y-196529700D02*
X204145058Y-196601128D01*
X204145058Y-196601128D02*
X204002201Y-196601128D01*
X204002201Y-196601128D02*
X203859344Y-196529700D01*
X203859344Y-196529700D02*
X203787915Y-196458271D01*
X203787915Y-196458271D02*
X203716486Y-196315414D01*
X203716486Y-196315414D02*
X203645058Y-196029700D01*
X203645058Y-196029700D02*
X203645058Y-195672557D01*
X203645058Y-195672557D02*
X203716486Y-195386842D01*
X203716486Y-195386842D02*
X203787915Y-195243985D01*
X203787915Y-195243985D02*
X203859344Y-195172557D01*
X203859344Y-195172557D02*
X204002201Y-195101128D01*
X205145057Y-196458271D02*
X205216486Y-196529700D01*
X205216486Y-196529700D02*
X205145057Y-196601128D01*
X205145057Y-196601128D02*
X205073629Y-196529700D01*
X205073629Y-196529700D02*
X205145057Y-196458271D01*
X205145057Y-196458271D02*
X205145057Y-196601128D01*
X205787915Y-195243985D02*
X205859343Y-195172557D01*
X205859343Y-195172557D02*
X206002201Y-195101128D01*
X206002201Y-195101128D02*
X206359343Y-195101128D01*
X206359343Y-195101128D02*
X206502201Y-195172557D01*
X206502201Y-195172557D02*
X206573629Y-195243985D01*
X206573629Y-195243985D02*
X206645058Y-195386842D01*
X206645058Y-195386842D02*
X206645058Y-195529700D01*
X206645058Y-195529700D02*
X206573629Y-195743985D01*
X206573629Y-195743985D02*
X205716486Y-196601128D01*
X205716486Y-196601128D02*
X206645058Y-196601128D01*
D10*
D11*
X177002200Y-191507200D02*
X285002200Y-191507200D01*
D10*
D12*
X264216485Y-193801128D02*
X263716485Y-193086842D01*
X263359342Y-193801128D02*
X263359342Y-192301128D01*
X263359342Y-192301128D02*
X263930771Y-192301128D01*
X263930771Y-192301128D02*
X264073628Y-192372557D01*
X264073628Y-192372557D02*
X264145057Y-192443985D01*
X264145057Y-192443985D02*
X264216485Y-192586842D01*
X264216485Y-192586842D02*
X264216485Y-192801128D01*
X264216485Y-192801128D02*
X264145057Y-192943985D01*
X264145057Y-192943985D02*
X264073628Y-193015414D01*
X264073628Y-193015414D02*
X263930771Y-193086842D01*
X263930771Y-193086842D02*
X263359342Y-193086842D01*
X265430771Y-193729700D02*
X265287914Y-193801128D01*
X265287914Y-193801128D02*
X265002200Y-193801128D01*
X265002200Y-193801128D02*
X264859342Y-193729700D01*
X264859342Y-193729700D02*
X264787914Y-193586842D01*
X264787914Y-193586842D02*
X264787914Y-193015414D01*
X264787914Y-193015414D02*
X264859342Y-192872557D01*
X264859342Y-192872557D02*
X265002200Y-192801128D01*
X265002200Y-192801128D02*
X265287914Y-192801128D01*
X265287914Y-192801128D02*
X265430771Y-192872557D01*
X265430771Y-192872557D02*
X265502200Y-193015414D01*
X265502200Y-193015414D02*
X265502200Y-193158271D01*
X265502200Y-193158271D02*
X264787914Y-193301128D01*
X266002199Y-192801128D02*
X266359342Y-193801128D01*
X266359342Y-193801128D02*
X266716485Y-192801128D01*
X267287913Y-193658271D02*
X267359342Y-193729700D01*
X267359342Y-193729700D02*
X267287913Y-193801128D01*
X267287913Y-193801128D02*
X267216485Y-193729700D01*
X267216485Y-193729700D02*
X267287913Y-193658271D01*
X267287913Y-193658271D02*
X267287913Y-193801128D01*
X267287913Y-192872557D02*
X267359342Y-192943985D01*
X267359342Y-192943985D02*
X267287913Y-193015414D01*
X267287913Y-193015414D02*
X267216485Y-192943985D01*
X267216485Y-192943985D02*
X267287913Y-192872557D01*
X267287913Y-192872557D02*
X267287913Y-193015414D01*
X269930771Y-193801128D02*
X269073628Y-193801128D01*
X269502199Y-193801128D02*
X269502199Y-192301128D01*
X269502199Y-192301128D02*
X269359342Y-192515414D01*
X269359342Y-192515414D02*
X269216485Y-192658271D01*
X269216485Y-192658271D02*
X269073628Y-192729700D01*
D10*
D11*
X178287914Y-193729700D02*
X178502200Y-193801128D01*
X178502200Y-193801128D02*
X178859342Y-193801128D01*
X178859342Y-193801128D02*
X179002200Y-193729700D01*
X179002200Y-193729700D02*
X179073628Y-193658271D01*
X179073628Y-193658271D02*
X179145057Y-193515414D01*
X179145057Y-193515414D02*
X179145057Y-193372557D01*
X179145057Y-193372557D02*
X179073628Y-193229700D01*
X179073628Y-193229700D02*
X179002200Y-193158271D01*
X179002200Y-193158271D02*
X178859342Y-193086842D01*
X178859342Y-193086842D02*
X178573628Y-193015414D01*
X178573628Y-193015414D02*
X178430771Y-192943985D01*
X178430771Y-192943985D02*
X178359342Y-192872557D01*
X178359342Y-192872557D02*
X178287914Y-192729700D01*
X178287914Y-192729700D02*
X178287914Y-192586842D01*
X178287914Y-192586842D02*
X178359342Y-192443985D01*
X178359342Y-192443985D02*
X178430771Y-192372557D01*
X178430771Y-192372557D02*
X178573628Y-192301128D01*
X178573628Y-192301128D02*
X178930771Y-192301128D01*
X178930771Y-192301128D02*
X179145057Y-192372557D01*
X179787913Y-193801128D02*
X179787913Y-192801128D01*
X179787913Y-192301128D02*
X179716485Y-192372557D01*
X179716485Y-192372557D02*
X179787913Y-192443985D01*
X179787913Y-192443985D02*
X179859342Y-192372557D01*
X179859342Y-192372557D02*
X179787913Y-192301128D01*
X179787913Y-192301128D02*
X179787913Y-192443985D01*
X180359342Y-192801128D02*
X181145057Y-192801128D01*
X181145057Y-192801128D02*
X180359342Y-193801128D01*
X180359342Y-193801128D02*
X181145057Y-193801128D01*
X182287914Y-193729700D02*
X182145057Y-193801128D01*
X182145057Y-193801128D02*
X181859343Y-193801128D01*
X181859343Y-193801128D02*
X181716485Y-193729700D01*
X181716485Y-193729700D02*
X181645057Y-193586842D01*
X181645057Y-193586842D02*
X181645057Y-193015414D01*
X181645057Y-193015414D02*
X181716485Y-192872557D01*
X181716485Y-192872557D02*
X181859343Y-192801128D01*
X181859343Y-192801128D02*
X182145057Y-192801128D01*
X182145057Y-192801128D02*
X182287914Y-192872557D01*
X182287914Y-192872557D02*
X182359343Y-193015414D01*
X182359343Y-193015414D02*
X182359343Y-193158271D01*
X182359343Y-193158271D02*
X181645057Y-193301128D01*
X183002199Y-193658271D02*
X183073628Y-193729700D01*
X183073628Y-193729700D02*
X183002199Y-193801128D01*
X183002199Y-193801128D02*
X182930771Y-193729700D01*
X182930771Y-193729700D02*
X183002199Y-193658271D01*
X183002199Y-193658271D02*
X183002199Y-193801128D01*
X183002199Y-192872557D02*
X183073628Y-192943985D01*
X183073628Y-192943985D02*
X183002199Y-193015414D01*
X183002199Y-193015414D02*
X182930771Y-192943985D01*
X182930771Y-192943985D02*
X183002199Y-192872557D01*
X183002199Y-192872557D02*
X183002199Y-193015414D01*
X184787914Y-193372557D02*
X185502200Y-193372557D01*
X184645057Y-193801128D02*
X185145057Y-192301128D01*
X185145057Y-192301128D02*
X185645057Y-193801128D01*
X186787914Y-192801128D02*
X186787914Y-193801128D01*
X186430771Y-192229700D02*
X186073628Y-193301128D01*
X186073628Y-193301128D02*
X187002199Y-193301128D01*
D10*
D11*
X263359342Y-196601128D02*
X263359342Y-195101128D01*
X264716486Y-196601128D02*
X264716486Y-195101128D01*
X264716486Y-196529700D02*
X264573628Y-196601128D01*
X264573628Y-196601128D02*
X264287914Y-196601128D01*
X264287914Y-196601128D02*
X264145057Y-196529700D01*
X264145057Y-196529700D02*
X264073628Y-196458271D01*
X264073628Y-196458271D02*
X264002200Y-196315414D01*
X264002200Y-196315414D02*
X264002200Y-195886842D01*
X264002200Y-195886842D02*
X264073628Y-195743985D01*
X264073628Y-195743985D02*
X264145057Y-195672557D01*
X264145057Y-195672557D02*
X264287914Y-195601128D01*
X264287914Y-195601128D02*
X264573628Y-195601128D01*
X264573628Y-195601128D02*
X264716486Y-195672557D01*
X265430771Y-196458271D02*
X265502200Y-196529700D01*
X265502200Y-196529700D02*
X265430771Y-196601128D01*
X265430771Y-196601128D02*
X265359343Y-196529700D01*
X265359343Y-196529700D02*
X265430771Y-196458271D01*
X265430771Y-196458271D02*
X265430771Y-196601128D01*
X265430771Y-195672557D02*
X265502200Y-195743985D01*
X265502200Y-195743985D02*
X265430771Y-195815414D01*
X265430771Y-195815414D02*
X265359343Y-195743985D01*
X265359343Y-195743985D02*
X265430771Y-195672557D01*
X265430771Y-195672557D02*
X265430771Y-195815414D01*
X268073629Y-196601128D02*
X267216486Y-196601128D01*
X267645057Y-196601128D02*
X267645057Y-195101128D01*
X267645057Y-195101128D02*
X267502200Y-195315414D01*
X267502200Y-195315414D02*
X267359343Y-195458271D01*
X267359343Y-195458271D02*
X267216486Y-195529700D01*
X269787914Y-195029700D02*
X268502200Y-196958271D01*
X271073629Y-196601128D02*
X270216486Y-196601128D01*
X270645057Y-196601128D02*
X270645057Y-195101128D01*
X270645057Y-195101128D02*
X270502200Y-195315414D01*
X270502200Y-195315414D02*
X270359343Y-195458271D01*
X270359343Y-195458271D02*
X270216486Y-195529700D01*
D10*
D11*
X177002200Y-187507200D02*
X285002200Y-187507200D01*
D10*
D13*
X178430771Y-188232438D02*
X179573628Y-188232438D01*
X178752200Y-190232438D02*
X179002200Y-188232438D01*
X179978390Y-190232438D02*
X180145057Y-188899104D01*
X180228390Y-188232438D02*
X180121247Y-188327676D01*
X180121247Y-188327676D02*
X180204581Y-188422914D01*
X180204581Y-188422914D02*
X180311724Y-188327676D01*
X180311724Y-188327676D02*
X180228390Y-188232438D01*
X180228390Y-188232438D02*
X180204581Y-188422914D01*
X180799819Y-188899104D02*
X181561723Y-188899104D01*
X181168866Y-188232438D02*
X180954581Y-189946723D01*
X180954581Y-189946723D02*
X181026009Y-190137200D01*
X181026009Y-190137200D02*
X181204581Y-190232438D01*
X181204581Y-190232438D02*
X181395057Y-190232438D01*
X182335533Y-190232438D02*
X182156961Y-190137200D01*
X182156961Y-190137200D02*
X182085533Y-189946723D01*
X182085533Y-189946723D02*
X182299818Y-188232438D01*
X183859342Y-190137200D02*
X183656961Y-190232438D01*
X183656961Y-190232438D02*
X183276008Y-190232438D01*
X183276008Y-190232438D02*
X183097437Y-190137200D01*
X183097437Y-190137200D02*
X183026008Y-189946723D01*
X183026008Y-189946723D02*
X183121247Y-189184819D01*
X183121247Y-189184819D02*
X183240294Y-188994342D01*
X183240294Y-188994342D02*
X183442675Y-188899104D01*
X183442675Y-188899104D02*
X183823627Y-188899104D01*
X183823627Y-188899104D02*
X184002199Y-188994342D01*
X184002199Y-188994342D02*
X184073627Y-189184819D01*
X184073627Y-189184819D02*
X184049818Y-189375295D01*
X184049818Y-189375295D02*
X183073627Y-189565771D01*
X184811723Y-190041961D02*
X184895056Y-190137200D01*
X184895056Y-190137200D02*
X184787913Y-190232438D01*
X184787913Y-190232438D02*
X184704580Y-190137200D01*
X184704580Y-190137200D02*
X184811723Y-190041961D01*
X184811723Y-190041961D02*
X184787913Y-190232438D01*
X184942675Y-188994342D02*
X185026008Y-189089580D01*
X185026008Y-189089580D02*
X184918866Y-189184819D01*
X184918866Y-189184819D02*
X184835532Y-189089580D01*
X184835532Y-189089580D02*
X184942675Y-188994342D01*
X184942675Y-188994342D02*
X184918866Y-189184819D01*
X187252199Y-190232438D02*
X187502199Y-188232438D01*
X187502199Y-188232438D02*
X188264104Y-188232438D01*
X188264104Y-188232438D02*
X188442675Y-188327676D01*
X188442675Y-188327676D02*
X188526009Y-188422914D01*
X188526009Y-188422914D02*
X188597437Y-188613390D01*
X188597437Y-188613390D02*
X188561723Y-188899104D01*
X188561723Y-188899104D02*
X188442675Y-189089580D01*
X188442675Y-189089580D02*
X188335533Y-189184819D01*
X188335533Y-189184819D02*
X188133152Y-189280057D01*
X188133152Y-189280057D02*
X187371247Y-189280057D01*
X190406961Y-190041961D02*
X190299818Y-190137200D01*
X190299818Y-190137200D02*
X190002199Y-190232438D01*
X190002199Y-190232438D02*
X189811723Y-190232438D01*
X189811723Y-190232438D02*
X189537913Y-190137200D01*
X189537913Y-190137200D02*
X189371247Y-189946723D01*
X189371247Y-189946723D02*
X189299818Y-189756247D01*
X189299818Y-189756247D02*
X189252199Y-189375295D01*
X189252199Y-189375295D02*
X189287913Y-189089580D01*
X189287913Y-189089580D02*
X189430770Y-188708628D01*
X189430770Y-188708628D02*
X189549818Y-188518152D01*
X189549818Y-188518152D02*
X189764104Y-188327676D01*
X189764104Y-188327676D02*
X190061723Y-188232438D01*
X190061723Y-188232438D02*
X190252199Y-188232438D01*
X190252199Y-188232438D02*
X190526009Y-188327676D01*
X190526009Y-188327676D02*
X190609342Y-188422914D01*
X192026008Y-189184819D02*
X192299818Y-189280057D01*
X192299818Y-189280057D02*
X192383151Y-189375295D01*
X192383151Y-189375295D02*
X192454580Y-189565771D01*
X192454580Y-189565771D02*
X192418865Y-189851485D01*
X192418865Y-189851485D02*
X192299818Y-190041961D01*
X192299818Y-190041961D02*
X192192675Y-190137200D01*
X192192675Y-190137200D02*
X191990294Y-190232438D01*
X191990294Y-190232438D02*
X191228389Y-190232438D01*
X191228389Y-190232438D02*
X191478389Y-188232438D01*
X191478389Y-188232438D02*
X192145056Y-188232438D01*
X192145056Y-188232438D02*
X192323627Y-188327676D01*
X192323627Y-188327676D02*
X192406961Y-188422914D01*
X192406961Y-188422914D02*
X192478389Y-188613390D01*
X192478389Y-188613390D02*
X192454580Y-188803866D01*
X192454580Y-188803866D02*
X192335532Y-188994342D01*
X192335532Y-188994342D02*
X192228389Y-189089580D01*
X192228389Y-189089580D02*
X192026008Y-189184819D01*
X192026008Y-189184819D02*
X191359342Y-189184819D01*
D10*
D11*
X178859342Y-185615414D02*
X178359342Y-185615414D01*
X178359342Y-186401128D02*
X178359342Y-184901128D01*
X178359342Y-184901128D02*
X179073628Y-184901128D01*
X179645056Y-186401128D02*
X179645056Y-185401128D01*
X179645056Y-184901128D02*
X179573628Y-184972557D01*
X179573628Y-184972557D02*
X179645056Y-185043985D01*
X179645056Y-185043985D02*
X179716485Y-184972557D01*
X179716485Y-184972557D02*
X179645056Y-184901128D01*
X179645056Y-184901128D02*
X179645056Y-185043985D01*
X180573628Y-186401128D02*
X180430771Y-186329700D01*
X180430771Y-186329700D02*
X180359342Y-186186842D01*
X180359342Y-186186842D02*
X180359342Y-184901128D01*
X181716485Y-186329700D02*
X181573628Y-186401128D01*
X181573628Y-186401128D02*
X181287914Y-186401128D01*
X181287914Y-186401128D02*
X181145056Y-186329700D01*
X181145056Y-186329700D02*
X181073628Y-186186842D01*
X181073628Y-186186842D02*
X181073628Y-185615414D01*
X181073628Y-185615414D02*
X181145056Y-185472557D01*
X181145056Y-185472557D02*
X181287914Y-185401128D01*
X181287914Y-185401128D02*
X181573628Y-185401128D01*
X181573628Y-185401128D02*
X181716485Y-185472557D01*
X181716485Y-185472557D02*
X181787914Y-185615414D01*
X181787914Y-185615414D02*
X181787914Y-185758271D01*
X181787914Y-185758271D02*
X181073628Y-185901128D01*
X182430770Y-186258271D02*
X182502199Y-186329700D01*
X182502199Y-186329700D02*
X182430770Y-186401128D01*
X182430770Y-186401128D02*
X182359342Y-186329700D01*
X182359342Y-186329700D02*
X182430770Y-186258271D01*
X182430770Y-186258271D02*
X182430770Y-186401128D01*
X182430770Y-185472557D02*
X182502199Y-185543985D01*
X182502199Y-185543985D02*
X182430770Y-185615414D01*
X182430770Y-185615414D02*
X182359342Y-185543985D01*
X182359342Y-185543985D02*
X182430770Y-185472557D01*
X182430770Y-185472557D02*
X182430770Y-185615414D01*
X184216485Y-186329700D02*
X184430771Y-186401128D01*
X184430771Y-186401128D02*
X184787913Y-186401128D01*
X184787913Y-186401128D02*
X184930771Y-186329700D01*
X184930771Y-186329700D02*
X185002199Y-186258271D01*
X185002199Y-186258271D02*
X185073628Y-186115414D01*
X185073628Y-186115414D02*
X185073628Y-185972557D01*
X185073628Y-185972557D02*
X185002199Y-185829700D01*
X185002199Y-185829700D02*
X184930771Y-185758271D01*
X184930771Y-185758271D02*
X184787913Y-185686842D01*
X184787913Y-185686842D02*
X184502199Y-185615414D01*
X184502199Y-185615414D02*
X184359342Y-185543985D01*
X184359342Y-185543985D02*
X184287913Y-185472557D01*
X184287913Y-185472557D02*
X184216485Y-185329700D01*
X184216485Y-185329700D02*
X184216485Y-185186842D01*
X184216485Y-185186842D02*
X184287913Y-185043985D01*
X184287913Y-185043985D02*
X184359342Y-184972557D01*
X184359342Y-184972557D02*
X184502199Y-184901128D01*
X184502199Y-184901128D02*
X184859342Y-184901128D01*
X184859342Y-184901128D02*
X185073628Y-184972557D01*
X185502199Y-184901128D02*
X186359342Y-184901128D01*
X185930770Y-186401128D02*
X185930770Y-184901128D01*
X186859341Y-186401128D02*
X186859341Y-184901128D01*
X186859341Y-184901128D02*
X187359341Y-185972557D01*
X187359341Y-185972557D02*
X187859341Y-184901128D01*
X187859341Y-184901128D02*
X187859341Y-186401128D01*
X188430770Y-184901128D02*
X189359342Y-184901128D01*
X189359342Y-184901128D02*
X188859342Y-185472557D01*
X188859342Y-185472557D02*
X189073627Y-185472557D01*
X189073627Y-185472557D02*
X189216485Y-185543985D01*
X189216485Y-185543985D02*
X189287913Y-185615414D01*
X189287913Y-185615414D02*
X189359342Y-185758271D01*
X189359342Y-185758271D02*
X189359342Y-186115414D01*
X189359342Y-186115414D02*
X189287913Y-186258271D01*
X189287913Y-186258271D02*
X189216485Y-186329700D01*
X189216485Y-186329700D02*
X189073627Y-186401128D01*
X189073627Y-186401128D02*
X188645056Y-186401128D01*
X188645056Y-186401128D02*
X188502199Y-186329700D01*
X188502199Y-186329700D02*
X188430770Y-186258271D01*
X189930770Y-185043985D02*
X190002198Y-184972557D01*
X190002198Y-184972557D02*
X190145056Y-184901128D01*
X190145056Y-184901128D02*
X190502198Y-184901128D01*
X190502198Y-184901128D02*
X190645056Y-184972557D01*
X190645056Y-184972557D02*
X190716484Y-185043985D01*
X190716484Y-185043985D02*
X190787913Y-185186842D01*
X190787913Y-185186842D02*
X190787913Y-185329700D01*
X190787913Y-185329700D02*
X190716484Y-185543985D01*
X190716484Y-185543985D02*
X189859341Y-186401128D01*
X189859341Y-186401128D02*
X190787913Y-186401128D01*
X191073627Y-186543985D02*
X192216484Y-186543985D01*
X192573626Y-186401128D02*
X192573626Y-184901128D01*
X192573626Y-184901128D02*
X192930769Y-184901128D01*
X192930769Y-184901128D02*
X193145055Y-184972557D01*
X193145055Y-184972557D02*
X193287912Y-185115414D01*
X193287912Y-185115414D02*
X193359341Y-185258271D01*
X193359341Y-185258271D02*
X193430769Y-185543985D01*
X193430769Y-185543985D02*
X193430769Y-185758271D01*
X193430769Y-185758271D02*
X193359341Y-186043985D01*
X193359341Y-186043985D02*
X193287912Y-186186842D01*
X193287912Y-186186842D02*
X193145055Y-186329700D01*
X193145055Y-186329700D02*
X192930769Y-186401128D01*
X192930769Y-186401128D02*
X192573626Y-186401128D01*
X194073626Y-185615414D02*
X194573626Y-185615414D01*
X194787912Y-186401128D02*
X194073626Y-186401128D01*
X194073626Y-186401128D02*
X194073626Y-184901128D01*
X194073626Y-184901128D02*
X194787912Y-184901128D01*
X195216484Y-184901128D02*
X195716484Y-186401128D01*
X195716484Y-186401128D02*
X196216484Y-184901128D01*
X197216483Y-185615414D02*
X197430769Y-185686842D01*
X197430769Y-185686842D02*
X197502198Y-185758271D01*
X197502198Y-185758271D02*
X197573626Y-185901128D01*
X197573626Y-185901128D02*
X197573626Y-186115414D01*
X197573626Y-186115414D02*
X197502198Y-186258271D01*
X197502198Y-186258271D02*
X197430769Y-186329700D01*
X197430769Y-186329700D02*
X197287912Y-186401128D01*
X197287912Y-186401128D02*
X196716483Y-186401128D01*
X196716483Y-186401128D02*
X196716483Y-184901128D01*
X196716483Y-184901128D02*
X197216483Y-184901128D01*
X197216483Y-184901128D02*
X197359341Y-184972557D01*
X197359341Y-184972557D02*
X197430769Y-185043985D01*
X197430769Y-185043985D02*
X197502198Y-185186842D01*
X197502198Y-185186842D02*
X197502198Y-185329700D01*
X197502198Y-185329700D02*
X197430769Y-185472557D01*
X197430769Y-185472557D02*
X197359341Y-185543985D01*
X197359341Y-185543985D02*
X197216483Y-185615414D01*
X197216483Y-185615414D02*
X196716483Y-185615414D01*
X198502198Y-184901128D02*
X198787912Y-184901128D01*
X198787912Y-184901128D02*
X198930769Y-184972557D01*
X198930769Y-184972557D02*
X199073626Y-185115414D01*
X199073626Y-185115414D02*
X199145055Y-185401128D01*
X199145055Y-185401128D02*
X199145055Y-185901128D01*
X199145055Y-185901128D02*
X199073626Y-186186842D01*
X199073626Y-186186842D02*
X198930769Y-186329700D01*
X198930769Y-186329700D02*
X198787912Y-186401128D01*
X198787912Y-186401128D02*
X198502198Y-186401128D01*
X198502198Y-186401128D02*
X198359341Y-186329700D01*
X198359341Y-186329700D02*
X198216483Y-186186842D01*
X198216483Y-186186842D02*
X198145055Y-185901128D01*
X198145055Y-185901128D02*
X198145055Y-185401128D01*
X198145055Y-185401128D02*
X198216483Y-185115414D01*
X198216483Y-185115414D02*
X198359341Y-184972557D01*
X198359341Y-184972557D02*
X198502198Y-184901128D01*
X199716484Y-185972557D02*
X200430770Y-185972557D01*
X199573627Y-186401128D02*
X200073627Y-184901128D01*
X200073627Y-184901128D02*
X200573627Y-186401128D01*
X201930769Y-186401128D02*
X201430769Y-185686842D01*
X201073626Y-186401128D02*
X201073626Y-184901128D01*
X201073626Y-184901128D02*
X201645055Y-184901128D01*
X201645055Y-184901128D02*
X201787912Y-184972557D01*
X201787912Y-184972557D02*
X201859341Y-185043985D01*
X201859341Y-185043985D02*
X201930769Y-185186842D01*
X201930769Y-185186842D02*
X201930769Y-185401128D01*
X201930769Y-185401128D02*
X201859341Y-185543985D01*
X201859341Y-185543985D02*
X201787912Y-185615414D01*
X201787912Y-185615414D02*
X201645055Y-185686842D01*
X201645055Y-185686842D02*
X201073626Y-185686842D01*
X202573626Y-186401128D02*
X202573626Y-184901128D01*
X202573626Y-184901128D02*
X202930769Y-184901128D01*
X202930769Y-184901128D02*
X203145055Y-184972557D01*
X203145055Y-184972557D02*
X203287912Y-185115414D01*
X203287912Y-185115414D02*
X203359341Y-185258271D01*
X203359341Y-185258271D02*
X203430769Y-185543985D01*
X203430769Y-185543985D02*
X203430769Y-185758271D01*
X203430769Y-185758271D02*
X203359341Y-186043985D01*
X203359341Y-186043985D02*
X203287912Y-186186842D01*
X203287912Y-186186842D02*
X203145055Y-186329700D01*
X203145055Y-186329700D02*
X202930769Y-186401128D01*
X202930769Y-186401128D02*
X202573626Y-186401128D01*
X204073626Y-186258271D02*
X204145055Y-186329700D01*
X204145055Y-186329700D02*
X204073626Y-186401128D01*
X204073626Y-186401128D02*
X204002198Y-186329700D01*
X204002198Y-186329700D02*
X204073626Y-186258271D01*
X204073626Y-186258271D02*
X204073626Y-186401128D01*
X204787912Y-186401128D02*
X204787912Y-184901128D01*
X204930770Y-185829700D02*
X205359341Y-186401128D01*
X205359341Y-185401128D02*
X204787912Y-185972557D01*
X206002198Y-186401128D02*
X206002198Y-185401128D01*
X206002198Y-184901128D02*
X205930770Y-184972557D01*
X205930770Y-184972557D02*
X206002198Y-185043985D01*
X206002198Y-185043985D02*
X206073627Y-184972557D01*
X206073627Y-184972557D02*
X206002198Y-184901128D01*
X206002198Y-184901128D02*
X206002198Y-185043985D01*
X207359342Y-186329700D02*
X207216484Y-186401128D01*
X207216484Y-186401128D02*
X206930770Y-186401128D01*
X206930770Y-186401128D02*
X206787913Y-186329700D01*
X206787913Y-186329700D02*
X206716484Y-186258271D01*
X206716484Y-186258271D02*
X206645056Y-186115414D01*
X206645056Y-186115414D02*
X206645056Y-185686842D01*
X206645056Y-185686842D02*
X206716484Y-185543985D01*
X206716484Y-185543985D02*
X206787913Y-185472557D01*
X206787913Y-185472557D02*
X206930770Y-185401128D01*
X206930770Y-185401128D02*
X207216484Y-185401128D01*
X207216484Y-185401128D02*
X207359342Y-185472557D01*
X208645056Y-186401128D02*
X208645056Y-185615414D01*
X208645056Y-185615414D02*
X208573627Y-185472557D01*
X208573627Y-185472557D02*
X208430770Y-185401128D01*
X208430770Y-185401128D02*
X208145056Y-185401128D01*
X208145056Y-185401128D02*
X208002198Y-185472557D01*
X208645056Y-186329700D02*
X208502198Y-186401128D01*
X208502198Y-186401128D02*
X208145056Y-186401128D01*
X208145056Y-186401128D02*
X208002198Y-186329700D01*
X208002198Y-186329700D02*
X207930770Y-186186842D01*
X207930770Y-186186842D02*
X207930770Y-186043985D01*
X207930770Y-186043985D02*
X208002198Y-185901128D01*
X208002198Y-185901128D02*
X208145056Y-185829700D01*
X208145056Y-185829700D02*
X208502198Y-185829700D01*
X208502198Y-185829700D02*
X208645056Y-185758271D01*
X210002199Y-186401128D02*
X210002199Y-184901128D01*
X210002199Y-186329700D02*
X209859341Y-186401128D01*
X209859341Y-186401128D02*
X209573627Y-186401128D01*
X209573627Y-186401128D02*
X209430770Y-186329700D01*
X209430770Y-186329700D02*
X209359341Y-186258271D01*
X209359341Y-186258271D02*
X209287913Y-186115414D01*
X209287913Y-186115414D02*
X209287913Y-185686842D01*
X209287913Y-185686842D02*
X209359341Y-185543985D01*
X209359341Y-185543985D02*
X209430770Y-185472557D01*
X209430770Y-185472557D02*
X209573627Y-185401128D01*
X209573627Y-185401128D02*
X209859341Y-185401128D01*
X209859341Y-185401128D02*
X210002199Y-185472557D01*
X210359342Y-186543985D02*
X211502199Y-186543985D01*
X211859341Y-185401128D02*
X211859341Y-186901128D01*
X211859341Y-185472557D02*
X212002199Y-185401128D01*
X212002199Y-185401128D02*
X212287913Y-185401128D01*
X212287913Y-185401128D02*
X212430770Y-185472557D01*
X212430770Y-185472557D02*
X212502199Y-185543985D01*
X212502199Y-185543985D02*
X212573627Y-185686842D01*
X212573627Y-185686842D02*
X212573627Y-186115414D01*
X212573627Y-186115414D02*
X212502199Y-186258271D01*
X212502199Y-186258271D02*
X212430770Y-186329700D01*
X212430770Y-186329700D02*
X212287913Y-186401128D01*
X212287913Y-186401128D02*
X212002199Y-186401128D01*
X212002199Y-186401128D02*
X211859341Y-186329700D01*
X213859342Y-186329700D02*
X213716484Y-186401128D01*
X213716484Y-186401128D02*
X213430770Y-186401128D01*
X213430770Y-186401128D02*
X213287913Y-186329700D01*
X213287913Y-186329700D02*
X213216484Y-186258271D01*
X213216484Y-186258271D02*
X213145056Y-186115414D01*
X213145056Y-186115414D02*
X213145056Y-185686842D01*
X213145056Y-185686842D02*
X213216484Y-185543985D01*
X213216484Y-185543985D02*
X213287913Y-185472557D01*
X213287913Y-185472557D02*
X213430770Y-185401128D01*
X213430770Y-185401128D02*
X213716484Y-185401128D01*
X213716484Y-185401128D02*
X213859342Y-185472557D01*
X214502198Y-186401128D02*
X214502198Y-184901128D01*
X214502198Y-185472557D02*
X214645056Y-185401128D01*
X214645056Y-185401128D02*
X214930770Y-185401128D01*
X214930770Y-185401128D02*
X215073627Y-185472557D01*
X215073627Y-185472557D02*
X215145056Y-185543985D01*
X215145056Y-185543985D02*
X215216484Y-185686842D01*
X215216484Y-185686842D02*
X215216484Y-186115414D01*
X215216484Y-186115414D02*
X215145056Y-186258271D01*
X215145056Y-186258271D02*
X215073627Y-186329700D01*
X215073627Y-186329700D02*
X214930770Y-186401128D01*
X214930770Y-186401128D02*
X214645056Y-186401128D01*
X214645056Y-186401128D02*
X214502198Y-186329700D01*
D10*
D11*
X177002200Y-181507200D02*
X285002200Y-181507200D01*
D10*
D11*
X178287914Y-183629700D02*
X178502200Y-183701128D01*
X178502200Y-183701128D02*
X178859342Y-183701128D01*
X178859342Y-183701128D02*
X179002200Y-183629700D01*
X179002200Y-183629700D02*
X179073628Y-183558271D01*
X179073628Y-183558271D02*
X179145057Y-183415414D01*
X179145057Y-183415414D02*
X179145057Y-183272557D01*
X179145057Y-183272557D02*
X179073628Y-183129700D01*
X179073628Y-183129700D02*
X179002200Y-183058271D01*
X179002200Y-183058271D02*
X178859342Y-182986842D01*
X178859342Y-182986842D02*
X178573628Y-182915414D01*
X178573628Y-182915414D02*
X178430771Y-182843985D01*
X178430771Y-182843985D02*
X178359342Y-182772557D01*
X178359342Y-182772557D02*
X178287914Y-182629700D01*
X178287914Y-182629700D02*
X178287914Y-182486842D01*
X178287914Y-182486842D02*
X178359342Y-182343985D01*
X178359342Y-182343985D02*
X178430771Y-182272557D01*
X178430771Y-182272557D02*
X178573628Y-182201128D01*
X178573628Y-182201128D02*
X178930771Y-182201128D01*
X178930771Y-182201128D02*
X179145057Y-182272557D01*
X179787913Y-183701128D02*
X179787913Y-182201128D01*
X180430771Y-183701128D02*
X180430771Y-182915414D01*
X180430771Y-182915414D02*
X180359342Y-182772557D01*
X180359342Y-182772557D02*
X180216485Y-182701128D01*
X180216485Y-182701128D02*
X180002199Y-182701128D01*
X180002199Y-182701128D02*
X179859342Y-182772557D01*
X179859342Y-182772557D02*
X179787913Y-182843985D01*
X181716485Y-183629700D02*
X181573628Y-183701128D01*
X181573628Y-183701128D02*
X181287914Y-183701128D01*
X181287914Y-183701128D02*
X181145056Y-183629700D01*
X181145056Y-183629700D02*
X181073628Y-183486842D01*
X181073628Y-183486842D02*
X181073628Y-182915414D01*
X181073628Y-182915414D02*
X181145056Y-182772557D01*
X181145056Y-182772557D02*
X181287914Y-182701128D01*
X181287914Y-182701128D02*
X181573628Y-182701128D01*
X181573628Y-182701128D02*
X181716485Y-182772557D01*
X181716485Y-182772557D02*
X181787914Y-182915414D01*
X181787914Y-182915414D02*
X181787914Y-183058271D01*
X181787914Y-183058271D02*
X181073628Y-183201128D01*
X183002199Y-183629700D02*
X182859342Y-183701128D01*
X182859342Y-183701128D02*
X182573628Y-183701128D01*
X182573628Y-183701128D02*
X182430770Y-183629700D01*
X182430770Y-183629700D02*
X182359342Y-183486842D01*
X182359342Y-183486842D02*
X182359342Y-182915414D01*
X182359342Y-182915414D02*
X182430770Y-182772557D01*
X182430770Y-182772557D02*
X182573628Y-182701128D01*
X182573628Y-182701128D02*
X182859342Y-182701128D01*
X182859342Y-182701128D02*
X183002199Y-182772557D01*
X183002199Y-182772557D02*
X183073628Y-182915414D01*
X183073628Y-182915414D02*
X183073628Y-183058271D01*
X183073628Y-183058271D02*
X182359342Y-183201128D01*
X183502199Y-182701128D02*
X184073627Y-182701128D01*
X183716484Y-182201128D02*
X183716484Y-183486842D01*
X183716484Y-183486842D02*
X183787913Y-183629700D01*
X183787913Y-183629700D02*
X183930770Y-183701128D01*
X183930770Y-183701128D02*
X184073627Y-183701128D01*
X184573627Y-183558271D02*
X184645056Y-183629700D01*
X184645056Y-183629700D02*
X184573627Y-183701128D01*
X184573627Y-183701128D02*
X184502199Y-183629700D01*
X184502199Y-183629700D02*
X184573627Y-183558271D01*
X184573627Y-183558271D02*
X184573627Y-183701128D01*
X184573627Y-182772557D02*
X184645056Y-182843985D01*
X184645056Y-182843985D02*
X184573627Y-182915414D01*
X184573627Y-182915414D02*
X184502199Y-182843985D01*
X184502199Y-182843985D02*
X184573627Y-182772557D01*
X184573627Y-182772557D02*
X184573627Y-182915414D01*
D10*
D12*
X178359342Y-179915414D02*
X178859342Y-179915414D01*
X179073628Y-180701128D02*
X178359342Y-180701128D01*
X178359342Y-180701128D02*
X178359342Y-179201128D01*
X178359342Y-179201128D02*
X179073628Y-179201128D01*
X179573628Y-179701128D02*
X179930771Y-180701128D01*
X179930771Y-180701128D02*
X180287914Y-179701128D01*
X180859342Y-180701128D02*
X180859342Y-179701128D01*
X180859342Y-179201128D02*
X180787914Y-179272557D01*
X180787914Y-179272557D02*
X180859342Y-179343985D01*
X180859342Y-179343985D02*
X180930771Y-179272557D01*
X180930771Y-179272557D02*
X180859342Y-179201128D01*
X180859342Y-179201128D02*
X180859342Y-179343985D01*
X181502200Y-180629700D02*
X181645057Y-180701128D01*
X181645057Y-180701128D02*
X181930771Y-180701128D01*
X181930771Y-180701128D02*
X182073628Y-180629700D01*
X182073628Y-180629700D02*
X182145057Y-180486842D01*
X182145057Y-180486842D02*
X182145057Y-180415414D01*
X182145057Y-180415414D02*
X182073628Y-180272557D01*
X182073628Y-180272557D02*
X181930771Y-180201128D01*
X181930771Y-180201128D02*
X181716486Y-180201128D01*
X181716486Y-180201128D02*
X181573628Y-180129700D01*
X181573628Y-180129700D02*
X181502200Y-179986842D01*
X181502200Y-179986842D02*
X181502200Y-179915414D01*
X181502200Y-179915414D02*
X181573628Y-179772557D01*
X181573628Y-179772557D02*
X181716486Y-179701128D01*
X181716486Y-179701128D02*
X181930771Y-179701128D01*
X181930771Y-179701128D02*
X182073628Y-179772557D01*
X183002200Y-180701128D02*
X182859343Y-180629700D01*
X182859343Y-180629700D02*
X182787914Y-180558271D01*
X182787914Y-180558271D02*
X182716486Y-180415414D01*
X182716486Y-180415414D02*
X182716486Y-179986842D01*
X182716486Y-179986842D02*
X182787914Y-179843985D01*
X182787914Y-179843985D02*
X182859343Y-179772557D01*
X182859343Y-179772557D02*
X183002200Y-179701128D01*
X183002200Y-179701128D02*
X183216486Y-179701128D01*
X183216486Y-179701128D02*
X183359343Y-179772557D01*
X183359343Y-179772557D02*
X183430772Y-179843985D01*
X183430772Y-179843985D02*
X183502200Y-179986842D01*
X183502200Y-179986842D02*
X183502200Y-180415414D01*
X183502200Y-180415414D02*
X183430772Y-180558271D01*
X183430772Y-180558271D02*
X183359343Y-180629700D01*
X183359343Y-180629700D02*
X183216486Y-180701128D01*
X183216486Y-180701128D02*
X183002200Y-180701128D01*
X184145057Y-179701128D02*
X184145057Y-180701128D01*
X184145057Y-179843985D02*
X184216486Y-179772557D01*
X184216486Y-179772557D02*
X184359343Y-179701128D01*
X184359343Y-179701128D02*
X184573629Y-179701128D01*
X184573629Y-179701128D02*
X184716486Y-179772557D01*
X184716486Y-179772557D02*
X184787915Y-179915414D01*
X184787915Y-179915414D02*
X184787915Y-180701128D01*
X186645057Y-179915414D02*
X187145057Y-179915414D01*
X187359343Y-180701128D02*
X186645057Y-180701128D01*
X186645057Y-180701128D02*
X186645057Y-179201128D01*
X186645057Y-179201128D02*
X187359343Y-179201128D01*
X188002200Y-179701128D02*
X188002200Y-180701128D01*
X188002200Y-179843985D02*
X188073629Y-179772557D01*
X188073629Y-179772557D02*
X188216486Y-179701128D01*
X188216486Y-179701128D02*
X188430772Y-179701128D01*
X188430772Y-179701128D02*
X188573629Y-179772557D01*
X188573629Y-179772557D02*
X188645058Y-179915414D01*
X188645058Y-179915414D02*
X188645058Y-180701128D01*
X190002201Y-179701128D02*
X190002201Y-180915414D01*
X190002201Y-180915414D02*
X189930772Y-181058271D01*
X189930772Y-181058271D02*
X189859343Y-181129700D01*
X189859343Y-181129700D02*
X189716486Y-181201128D01*
X189716486Y-181201128D02*
X189502201Y-181201128D01*
X189502201Y-181201128D02*
X189359343Y-181129700D01*
X190002201Y-180629700D02*
X189859343Y-180701128D01*
X189859343Y-180701128D02*
X189573629Y-180701128D01*
X189573629Y-180701128D02*
X189430772Y-180629700D01*
X189430772Y-180629700D02*
X189359343Y-180558271D01*
X189359343Y-180558271D02*
X189287915Y-180415414D01*
X189287915Y-180415414D02*
X189287915Y-179986842D01*
X189287915Y-179986842D02*
X189359343Y-179843985D01*
X189359343Y-179843985D02*
X189430772Y-179772557D01*
X189430772Y-179772557D02*
X189573629Y-179701128D01*
X189573629Y-179701128D02*
X189859343Y-179701128D01*
X189859343Y-179701128D02*
X190002201Y-179772557D01*
X190716486Y-180701128D02*
X190716486Y-179701128D01*
X190716486Y-179201128D02*
X190645058Y-179272557D01*
X190645058Y-179272557D02*
X190716486Y-179343985D01*
X190716486Y-179343985D02*
X190787915Y-179272557D01*
X190787915Y-179272557D02*
X190716486Y-179201128D01*
X190716486Y-179201128D02*
X190716486Y-179343985D01*
X191430772Y-179701128D02*
X191430772Y-180701128D01*
X191430772Y-179843985D02*
X191502201Y-179772557D01*
X191502201Y-179772557D02*
X191645058Y-179701128D01*
X191645058Y-179701128D02*
X191859344Y-179701128D01*
X191859344Y-179701128D02*
X192002201Y-179772557D01*
X192002201Y-179772557D02*
X192073630Y-179915414D01*
X192073630Y-179915414D02*
X192073630Y-180701128D01*
X193359344Y-180629700D02*
X193216487Y-180701128D01*
X193216487Y-180701128D02*
X192930773Y-180701128D01*
X192930773Y-180701128D02*
X192787915Y-180629700D01*
X192787915Y-180629700D02*
X192716487Y-180486842D01*
X192716487Y-180486842D02*
X192716487Y-179915414D01*
X192716487Y-179915414D02*
X192787915Y-179772557D01*
X192787915Y-179772557D02*
X192930773Y-179701128D01*
X192930773Y-179701128D02*
X193216487Y-179701128D01*
X193216487Y-179701128D02*
X193359344Y-179772557D01*
X193359344Y-179772557D02*
X193430773Y-179915414D01*
X193430773Y-179915414D02*
X193430773Y-180058271D01*
X193430773Y-180058271D02*
X192716487Y-180201128D01*
X194645058Y-180629700D02*
X194502201Y-180701128D01*
X194502201Y-180701128D02*
X194216487Y-180701128D01*
X194216487Y-180701128D02*
X194073629Y-180629700D01*
X194073629Y-180629700D02*
X194002201Y-180486842D01*
X194002201Y-180486842D02*
X194002201Y-179915414D01*
X194002201Y-179915414D02*
X194073629Y-179772557D01*
X194073629Y-179772557D02*
X194216487Y-179701128D01*
X194216487Y-179701128D02*
X194502201Y-179701128D01*
X194502201Y-179701128D02*
X194645058Y-179772557D01*
X194645058Y-179772557D02*
X194716487Y-179915414D01*
X194716487Y-179915414D02*
X194716487Y-180058271D01*
X194716487Y-180058271D02*
X194002201Y-180201128D01*
X195359343Y-180701128D02*
X195359343Y-179701128D01*
X195359343Y-179986842D02*
X195430772Y-179843985D01*
X195430772Y-179843985D02*
X195502201Y-179772557D01*
X195502201Y-179772557D02*
X195645058Y-179701128D01*
X195645058Y-179701128D02*
X195787915Y-179701128D01*
X196287914Y-180701128D02*
X196287914Y-179701128D01*
X196287914Y-179201128D02*
X196216486Y-179272557D01*
X196216486Y-179272557D02*
X196287914Y-179343985D01*
X196287914Y-179343985D02*
X196359343Y-179272557D01*
X196359343Y-179272557D02*
X196287914Y-179201128D01*
X196287914Y-179201128D02*
X196287914Y-179343985D01*
X197002200Y-179701128D02*
X197002200Y-180701128D01*
X197002200Y-179843985D02*
X197073629Y-179772557D01*
X197073629Y-179772557D02*
X197216486Y-179701128D01*
X197216486Y-179701128D02*
X197430772Y-179701128D01*
X197430772Y-179701128D02*
X197573629Y-179772557D01*
X197573629Y-179772557D02*
X197645058Y-179915414D01*
X197645058Y-179915414D02*
X197645058Y-180701128D01*
X199002201Y-179701128D02*
X199002201Y-180915414D01*
X199002201Y-180915414D02*
X198930772Y-181058271D01*
X198930772Y-181058271D02*
X198859343Y-181129700D01*
X198859343Y-181129700D02*
X198716486Y-181201128D01*
X198716486Y-181201128D02*
X198502201Y-181201128D01*
X198502201Y-181201128D02*
X198359343Y-181129700D01*
X199002201Y-180629700D02*
X198859343Y-180701128D01*
X198859343Y-180701128D02*
X198573629Y-180701128D01*
X198573629Y-180701128D02*
X198430772Y-180629700D01*
X198430772Y-180629700D02*
X198359343Y-180558271D01*
X198359343Y-180558271D02*
X198287915Y-180415414D01*
X198287915Y-180415414D02*
X198287915Y-179986842D01*
X198287915Y-179986842D02*
X198359343Y-179843985D01*
X198359343Y-179843985D02*
X198430772Y-179772557D01*
X198430772Y-179772557D02*
X198573629Y-179701128D01*
X198573629Y-179701128D02*
X198859343Y-179701128D01*
X198859343Y-179701128D02*
X199002201Y-179772557D01*
D10*
D11*
X178287914Y-177629700D02*
X178502200Y-177701128D01*
X178502200Y-177701128D02*
X178859342Y-177701128D01*
X178859342Y-177701128D02*
X179002200Y-177629700D01*
X179002200Y-177629700D02*
X179073628Y-177558271D01*
X179073628Y-177558271D02*
X179145057Y-177415414D01*
X179145057Y-177415414D02*
X179145057Y-177272557D01*
X179145057Y-177272557D02*
X179073628Y-177129700D01*
X179073628Y-177129700D02*
X179002200Y-177058271D01*
X179002200Y-177058271D02*
X178859342Y-176986842D01*
X178859342Y-176986842D02*
X178573628Y-176915414D01*
X178573628Y-176915414D02*
X178430771Y-176843985D01*
X178430771Y-176843985D02*
X178359342Y-176772557D01*
X178359342Y-176772557D02*
X178287914Y-176629700D01*
X178287914Y-176629700D02*
X178287914Y-176486842D01*
X178287914Y-176486842D02*
X178359342Y-176343985D01*
X178359342Y-176343985D02*
X178430771Y-176272557D01*
X178430771Y-176272557D02*
X178573628Y-176201128D01*
X178573628Y-176201128D02*
X178930771Y-176201128D01*
X178930771Y-176201128D02*
X179145057Y-176272557D01*
X179573628Y-176201128D02*
X180430771Y-176201128D01*
X180002199Y-177701128D02*
X180002199Y-176201128D01*
X180930770Y-177701128D02*
X180930770Y-176201128D01*
X180930770Y-176201128D02*
X181430770Y-177272557D01*
X181430770Y-177272557D02*
X181930770Y-176201128D01*
X181930770Y-176201128D02*
X181930770Y-177701128D01*
X182502199Y-176201128D02*
X183430771Y-176201128D01*
X183430771Y-176201128D02*
X182930771Y-176772557D01*
X182930771Y-176772557D02*
X183145056Y-176772557D01*
X183145056Y-176772557D02*
X183287914Y-176843985D01*
X183287914Y-176843985D02*
X183359342Y-176915414D01*
X183359342Y-176915414D02*
X183430771Y-177058271D01*
X183430771Y-177058271D02*
X183430771Y-177415414D01*
X183430771Y-177415414D02*
X183359342Y-177558271D01*
X183359342Y-177558271D02*
X183287914Y-177629700D01*
X183287914Y-177629700D02*
X183145056Y-177701128D01*
X183145056Y-177701128D02*
X182716485Y-177701128D01*
X182716485Y-177701128D02*
X182573628Y-177629700D01*
X182573628Y-177629700D02*
X182502199Y-177558271D01*
X184002199Y-176343985D02*
X184073627Y-176272557D01*
X184073627Y-176272557D02*
X184216485Y-176201128D01*
X184216485Y-176201128D02*
X184573627Y-176201128D01*
X184573627Y-176201128D02*
X184716485Y-176272557D01*
X184716485Y-176272557D02*
X184787913Y-176343985D01*
X184787913Y-176343985D02*
X184859342Y-176486842D01*
X184859342Y-176486842D02*
X184859342Y-176629700D01*
X184859342Y-176629700D02*
X184787913Y-176843985D01*
X184787913Y-176843985D02*
X183930770Y-177701128D01*
X183930770Y-177701128D02*
X184859342Y-177701128D01*
X186645055Y-177701128D02*
X186645055Y-176201128D01*
X186645055Y-176201128D02*
X187002198Y-176201128D01*
X187002198Y-176201128D02*
X187216484Y-176272557D01*
X187216484Y-176272557D02*
X187359341Y-176415414D01*
X187359341Y-176415414D02*
X187430770Y-176558271D01*
X187430770Y-176558271D02*
X187502198Y-176843985D01*
X187502198Y-176843985D02*
X187502198Y-177058271D01*
X187502198Y-177058271D02*
X187430770Y-177343985D01*
X187430770Y-177343985D02*
X187359341Y-177486842D01*
X187359341Y-177486842D02*
X187216484Y-177629700D01*
X187216484Y-177629700D02*
X187002198Y-177701128D01*
X187002198Y-177701128D02*
X186645055Y-177701128D01*
X188716484Y-177629700D02*
X188573627Y-177701128D01*
X188573627Y-177701128D02*
X188287913Y-177701128D01*
X188287913Y-177701128D02*
X188145055Y-177629700D01*
X188145055Y-177629700D02*
X188073627Y-177486842D01*
X188073627Y-177486842D02*
X188073627Y-176915414D01*
X188073627Y-176915414D02*
X188145055Y-176772557D01*
X188145055Y-176772557D02*
X188287913Y-176701128D01*
X188287913Y-176701128D02*
X188573627Y-176701128D01*
X188573627Y-176701128D02*
X188716484Y-176772557D01*
X188716484Y-176772557D02*
X188787913Y-176915414D01*
X188787913Y-176915414D02*
X188787913Y-177058271D01*
X188787913Y-177058271D02*
X188073627Y-177201128D01*
X189287912Y-176701128D02*
X189645055Y-177701128D01*
X189645055Y-177701128D02*
X190002198Y-176701128D01*
X191145055Y-177629700D02*
X191002198Y-177701128D01*
X191002198Y-177701128D02*
X190716484Y-177701128D01*
X190716484Y-177701128D02*
X190573626Y-177629700D01*
X190573626Y-177629700D02*
X190502198Y-177486842D01*
X190502198Y-177486842D02*
X190502198Y-176915414D01*
X190502198Y-176915414D02*
X190573626Y-176772557D01*
X190573626Y-176772557D02*
X190716484Y-176701128D01*
X190716484Y-176701128D02*
X191002198Y-176701128D01*
X191002198Y-176701128D02*
X191145055Y-176772557D01*
X191145055Y-176772557D02*
X191216484Y-176915414D01*
X191216484Y-176915414D02*
X191216484Y-177058271D01*
X191216484Y-177058271D02*
X190502198Y-177201128D01*
X192073626Y-177701128D02*
X191930769Y-177629700D01*
X191930769Y-177629700D02*
X191859340Y-177486842D01*
X191859340Y-177486842D02*
X191859340Y-176201128D01*
X192859340Y-177701128D02*
X192716483Y-177629700D01*
X192716483Y-177629700D02*
X192645054Y-177558271D01*
X192645054Y-177558271D02*
X192573626Y-177415414D01*
X192573626Y-177415414D02*
X192573626Y-176986842D01*
X192573626Y-176986842D02*
X192645054Y-176843985D01*
X192645054Y-176843985D02*
X192716483Y-176772557D01*
X192716483Y-176772557D02*
X192859340Y-176701128D01*
X192859340Y-176701128D02*
X193073626Y-176701128D01*
X193073626Y-176701128D02*
X193216483Y-176772557D01*
X193216483Y-176772557D02*
X193287912Y-176843985D01*
X193287912Y-176843985D02*
X193359340Y-176986842D01*
X193359340Y-176986842D02*
X193359340Y-177415414D01*
X193359340Y-177415414D02*
X193287912Y-177558271D01*
X193287912Y-177558271D02*
X193216483Y-177629700D01*
X193216483Y-177629700D02*
X193073626Y-177701128D01*
X193073626Y-177701128D02*
X192859340Y-177701128D01*
X194002197Y-176701128D02*
X194002197Y-178201128D01*
X194002197Y-176772557D02*
X194145055Y-176701128D01*
X194145055Y-176701128D02*
X194430769Y-176701128D01*
X194430769Y-176701128D02*
X194573626Y-176772557D01*
X194573626Y-176772557D02*
X194645055Y-176843985D01*
X194645055Y-176843985D02*
X194716483Y-176986842D01*
X194716483Y-176986842D02*
X194716483Y-177415414D01*
X194716483Y-177415414D02*
X194645055Y-177558271D01*
X194645055Y-177558271D02*
X194573626Y-177629700D01*
X194573626Y-177629700D02*
X194430769Y-177701128D01*
X194430769Y-177701128D02*
X194145055Y-177701128D01*
X194145055Y-177701128D02*
X194002197Y-177629700D01*
X195359340Y-177701128D02*
X195359340Y-176701128D01*
X195359340Y-176843985D02*
X195430769Y-176772557D01*
X195430769Y-176772557D02*
X195573626Y-176701128D01*
X195573626Y-176701128D02*
X195787912Y-176701128D01*
X195787912Y-176701128D02*
X195930769Y-176772557D01*
X195930769Y-176772557D02*
X196002198Y-176915414D01*
X196002198Y-176915414D02*
X196002198Y-177701128D01*
X196002198Y-176915414D02*
X196073626Y-176772557D01*
X196073626Y-176772557D02*
X196216483Y-176701128D01*
X196216483Y-176701128D02*
X196430769Y-176701128D01*
X196430769Y-176701128D02*
X196573626Y-176772557D01*
X196573626Y-176772557D02*
X196645055Y-176915414D01*
X196645055Y-176915414D02*
X196645055Y-177701128D01*
X197930769Y-177629700D02*
X197787912Y-177701128D01*
X197787912Y-177701128D02*
X197502198Y-177701128D01*
X197502198Y-177701128D02*
X197359340Y-177629700D01*
X197359340Y-177629700D02*
X197287912Y-177486842D01*
X197287912Y-177486842D02*
X197287912Y-176915414D01*
X197287912Y-176915414D02*
X197359340Y-176772557D01*
X197359340Y-176772557D02*
X197502198Y-176701128D01*
X197502198Y-176701128D02*
X197787912Y-176701128D01*
X197787912Y-176701128D02*
X197930769Y-176772557D01*
X197930769Y-176772557D02*
X198002198Y-176915414D01*
X198002198Y-176915414D02*
X198002198Y-177058271D01*
X198002198Y-177058271D02*
X197287912Y-177201128D01*
X198645054Y-176701128D02*
X198645054Y-177701128D01*
X198645054Y-176843985D02*
X198716483Y-176772557D01*
X198716483Y-176772557D02*
X198859340Y-176701128D01*
X198859340Y-176701128D02*
X199073626Y-176701128D01*
X199073626Y-176701128D02*
X199216483Y-176772557D01*
X199216483Y-176772557D02*
X199287912Y-176915414D01*
X199287912Y-176915414D02*
X199287912Y-177701128D01*
X199787912Y-176701128D02*
X200359340Y-176701128D01*
X200002197Y-176201128D02*
X200002197Y-177486842D01*
X200002197Y-177486842D02*
X200073626Y-177629700D01*
X200073626Y-177629700D02*
X200216483Y-177701128D01*
X200216483Y-177701128D02*
X200359340Y-177701128D01*
X202502197Y-176915414D02*
X202716483Y-176986842D01*
X202716483Y-176986842D02*
X202787912Y-177058271D01*
X202787912Y-177058271D02*
X202859340Y-177201128D01*
X202859340Y-177201128D02*
X202859340Y-177415414D01*
X202859340Y-177415414D02*
X202787912Y-177558271D01*
X202787912Y-177558271D02*
X202716483Y-177629700D01*
X202716483Y-177629700D02*
X202573626Y-177701128D01*
X202573626Y-177701128D02*
X202002197Y-177701128D01*
X202002197Y-177701128D02*
X202002197Y-176201128D01*
X202002197Y-176201128D02*
X202502197Y-176201128D01*
X202502197Y-176201128D02*
X202645055Y-176272557D01*
X202645055Y-176272557D02*
X202716483Y-176343985D01*
X202716483Y-176343985D02*
X202787912Y-176486842D01*
X202787912Y-176486842D02*
X202787912Y-176629700D01*
X202787912Y-176629700D02*
X202716483Y-176772557D01*
X202716483Y-176772557D02*
X202645055Y-176843985D01*
X202645055Y-176843985D02*
X202502197Y-176915414D01*
X202502197Y-176915414D02*
X202002197Y-176915414D01*
X203716483Y-177701128D02*
X203573626Y-177629700D01*
X203573626Y-177629700D02*
X203502197Y-177558271D01*
X203502197Y-177558271D02*
X203430769Y-177415414D01*
X203430769Y-177415414D02*
X203430769Y-176986842D01*
X203430769Y-176986842D02*
X203502197Y-176843985D01*
X203502197Y-176843985D02*
X203573626Y-176772557D01*
X203573626Y-176772557D02*
X203716483Y-176701128D01*
X203716483Y-176701128D02*
X203930769Y-176701128D01*
X203930769Y-176701128D02*
X204073626Y-176772557D01*
X204073626Y-176772557D02*
X204145055Y-176843985D01*
X204145055Y-176843985D02*
X204216483Y-176986842D01*
X204216483Y-176986842D02*
X204216483Y-177415414D01*
X204216483Y-177415414D02*
X204145055Y-177558271D01*
X204145055Y-177558271D02*
X204073626Y-177629700D01*
X204073626Y-177629700D02*
X203930769Y-177701128D01*
X203930769Y-177701128D02*
X203716483Y-177701128D01*
X205502198Y-177701128D02*
X205502198Y-176915414D01*
X205502198Y-176915414D02*
X205430769Y-176772557D01*
X205430769Y-176772557D02*
X205287912Y-176701128D01*
X205287912Y-176701128D02*
X205002198Y-176701128D01*
X205002198Y-176701128D02*
X204859340Y-176772557D01*
X205502198Y-177629700D02*
X205359340Y-177701128D01*
X205359340Y-177701128D02*
X205002198Y-177701128D01*
X205002198Y-177701128D02*
X204859340Y-177629700D01*
X204859340Y-177629700D02*
X204787912Y-177486842D01*
X204787912Y-177486842D02*
X204787912Y-177343985D01*
X204787912Y-177343985D02*
X204859340Y-177201128D01*
X204859340Y-177201128D02*
X205002198Y-177129700D01*
X205002198Y-177129700D02*
X205359340Y-177129700D01*
X205359340Y-177129700D02*
X205502198Y-177058271D01*
X206216483Y-177701128D02*
X206216483Y-176701128D01*
X206216483Y-176986842D02*
X206287912Y-176843985D01*
X206287912Y-176843985D02*
X206359341Y-176772557D01*
X206359341Y-176772557D02*
X206502198Y-176701128D01*
X206502198Y-176701128D02*
X206645055Y-176701128D01*
X207787912Y-177701128D02*
X207787912Y-176201128D01*
X207787912Y-177629700D02*
X207645054Y-177701128D01*
X207645054Y-177701128D02*
X207359340Y-177701128D01*
X207359340Y-177701128D02*
X207216483Y-177629700D01*
X207216483Y-177629700D02*
X207145054Y-177558271D01*
X207145054Y-177558271D02*
X207073626Y-177415414D01*
X207073626Y-177415414D02*
X207073626Y-176986842D01*
X207073626Y-176986842D02*
X207145054Y-176843985D01*
X207145054Y-176843985D02*
X207216483Y-176772557D01*
X207216483Y-176772557D02*
X207359340Y-176701128D01*
X207359340Y-176701128D02*
X207645054Y-176701128D01*
X207645054Y-176701128D02*
X207787912Y-176772557D01*
D10*
D11*
D10*
D11*
D10*
D11*
D10*
D11*
X197002200Y-191507200D02*
X197002200Y-194507200D01*
D10*
D11*
X261002200Y-191507200D02*
X261002200Y-198007200D01*
D14*
%TO.P,BZ1,1,-*%
%TO.N,+3.3V*%
X63500000Y-73660000D03*
D15*
%TO.P,BZ1,2,+*%
%TO.N,Net-(BZ1-+)*%
X63500000Y-69660000D03*
%TD*%
D16*
%TO.P,J2,S1,SHIELD*%
%TO.N,unconnected-(J2-SHIELD-PadS1)*%
X93976000Y-103759000D03*
D17*
X93976000Y-99579000D03*
X102616000Y-99579000D03*
D16*
X102616000Y-103759000D03*
%TD*%
D18*
%TO.P,J4,1,Pin_1*%
%TO.N,GND*%
X91059000Y-96139000D03*
D19*
%TO.P,J4,2,Pin_2*%
%TO.N,Net-(J4-Pin_2)*%
X89789000Y-96139000D03*
%TO.P,J4,3,Pin_3*%
%TO.N,+3.3V*%
X88519000Y-96139000D03*
%TD*%
D20*
%TO.P,H1,1*%
%TO.N,N/C*%
X85852000Y-147276000D03*
%TD*%
D21*
%TO.P,J1,1,Pin_1*%
%TO.N,+24V*%
X75692000Y-101789000D03*
D22*
%TO.P,J1,2,Pin_2*%
%TO.N,GND*%
X79192000Y-101789000D03*
%TD*%
D20*
%TO.P,H2,1*%
%TO.N,N/C*%
X85852000Y-57276000D03*
%TD*%
D23*
%TO.N,BUZZ*%
X89408000Y-88646000D03*
X88392000Y-86868000D03*
X85429431Y-79924569D03*
X88138000Y-82550000D03*
%TO.N,Net-(D4-K)*%
X86106000Y-104902000D03*
X86106000Y-102362000D03*
%TO.N,LED*%
X87122000Y-104902000D03*
X87122000Y-102362000D03*
%TO.N,+3.3V*%
X91694000Y-81026000D03*
X88562502Y-93174498D03*
X87757000Y-80954500D03*
X96733726Y-91758438D03*
X86868000Y-78232000D03*
X93345000Y-81026000D03*
%TO.N,GND*%
X76073000Y-90892500D03*
X84709000Y-93599000D03*
X70104000Y-91440000D03*
X84086891Y-91808109D03*
X103022400Y-90805000D03*
X97028000Y-72644000D03*
X92329000Y-69342000D03*
X90170000Y-80264000D03*
X67564000Y-77978000D03*
X95250000Y-88900000D03*
X84455000Y-80264000D03*
X97804098Y-96822500D03*
X103073200Y-87045800D03*
X82042000Y-86331500D03*
X78740000Y-82736500D03*
X102362000Y-97409000D03*
X94488000Y-95250000D03*
X97790000Y-79629000D03*
X84201000Y-99695000D03*
X81534000Y-73533000D03*
X65024000Y-91186000D03*
X100076000Y-81407000D03*
X72644000Y-75184000D03*
X71882000Y-81534000D03*
X95885000Y-81280000D03*
X94361000Y-97663000D03*
X103022400Y-89535000D03*
X102108000Y-84836000D03*
%TO.N,BUCK_IN*%
X68199000Y-85115000D03*
X70104000Y-84455000D03*
X73152000Y-78740000D03*
%TO.N,NRST*%
X99353500Y-86868000D03*
X95123000Y-85471000D03*
%TO.N,SPI1_MOSI*%
X83693000Y-83788815D03*
X87503000Y-83820000D03*
%TD*%
D24*
%TO.N,BUZZ*%
X88392000Y-87630000D02*
X89408000Y-88646000D01*
X88392000Y-86868000D02*
X88392000Y-87630000D01*
X88054862Y-82550000D02*
X88138000Y-82550000D01*
X85429431Y-79924569D02*
X88054862Y-82550000D01*
%TO.N,LED*%
X87122000Y-104902000D02*
X87122000Y-102362000D01*
%TO.N,Net-(D4-K)*%
X86106000Y-102362000D02*
X86106000Y-104902000D01*
D25*
%TO.N,+3.3V*%
X87757000Y-79952624D02*
X86960188Y-79155812D01*
X86960188Y-79155812D02*
X86960188Y-78324188D01*
D26*
X88562502Y-93174498D02*
X95317666Y-93174498D01*
D25*
X91694000Y-81026000D02*
X93345000Y-81026000D01*
X86960188Y-78324188D02*
X86868000Y-78232000D01*
X87757000Y-80954500D02*
X87757000Y-79952624D01*
D26*
X95317666Y-93174498D02*
X96733726Y-91758438D01*
%TO.N,BUCK_IN*%
X70104000Y-84455000D02*
X70104000Y-81788000D01*
X68199000Y-85115000D02*
X69444000Y-85115000D01*
X70104000Y-81788000D02*
X73152000Y-78740000D01*
X69444000Y-85115000D02*
X70104000Y-84455000D01*
D25*
%TO.N,NRST*%
X96520000Y-86868000D02*
X95123000Y-85471000D01*
X99353500Y-86868000D02*
X96520000Y-86868000D01*
D24*
%TO.N,SPI1_MOSI*%
X87471815Y-83788815D02*
X87503000Y-83820000D01*
X83693000Y-83788815D02*
X87471815Y-83788815D01*
D26*
%TO.N,unconnected-(J2-SHIELD-PadS1)*%
X102616000Y-99579000D02*
X102616000Y-103759000D01*
X93976000Y-99579000D02*
X93976000Y-103759000D01*
%TD*%
%TA.AperFunction,Conductor*%
%TO.N,GND*%
G36*
X95961999Y-51926724D02*
G01*
X97259853Y-52067596D01*
X97301926Y-52079963D01*
X98293512Y-52575756D01*
X98302288Y-52580596D01*
X98855805Y-52915773D01*
X98871506Y-52927041D01*
X99055985Y-53082614D01*
X99063726Y-53089726D01*
X99807771Y-53833771D01*
X99830999Y-53865998D01*
X100323912Y-54851824D01*
X100333301Y-54877204D01*
X100582981Y-55875926D01*
X100582983Y-55875932D01*
X100584000Y-55880000D01*
X100585558Y-55883895D01*
X100585560Y-55883901D01*
X100969001Y-56842502D01*
X101092000Y-57150000D01*
X101093151Y-57152302D01*
X101156392Y-57278783D01*
X101371749Y-57709497D01*
X101981000Y-58927999D01*
X102362000Y-59690000D01*
X102692148Y-60102685D01*
X104393999Y-62230000D01*
X105027696Y-62736957D01*
X105664000Y-63246000D01*
X105667566Y-63248140D01*
X105667571Y-63248143D01*
X107357164Y-64261899D01*
X108204000Y-64770000D01*
X109220000Y-65278000D01*
X110781182Y-65721142D01*
X110797410Y-65726997D01*
X111503323Y-66038817D01*
X111508622Y-66041311D01*
X112007101Y-66290550D01*
X112020423Y-66298282D01*
X112764444Y-66794296D01*
X112785567Y-66812072D01*
X113349676Y-67405975D01*
X113363228Y-67423018D01*
X113782990Y-68058363D01*
X113797168Y-68087505D01*
X114295066Y-69581199D01*
X114301113Y-69611560D01*
X114351684Y-70318255D01*
X114352000Y-70327106D01*
X114352000Y-134227047D01*
X114351915Y-134231628D01*
X114300992Y-135609154D01*
X114287986Y-135660027D01*
X113797001Y-136641998D01*
X113785292Y-136660944D01*
X113042743Y-137651007D01*
X113012326Y-137679781D01*
X112276916Y-138170055D01*
X112258198Y-138180325D01*
X110794558Y-138826264D01*
X110784265Y-138830269D01*
X108970022Y-139444637D01*
X108970009Y-139444642D01*
X108966000Y-139446000D01*
X108962210Y-139447894D01*
X108962198Y-139447900D01*
X106934002Y-140461998D01*
X105155996Y-141732002D01*
X103634425Y-143253574D01*
X103634416Y-143253583D01*
X103632000Y-143256000D01*
X103629868Y-143258664D01*
X103629859Y-143258675D01*
X102615999Y-144526001D01*
X101600000Y-146303998D01*
X100838000Y-148336000D01*
X100837253Y-148338174D01*
X100335251Y-149844247D01*
X100320788Y-149873818D01*
X99827904Y-150613143D01*
X99814667Y-150629725D01*
X98876421Y-151618221D01*
X98848609Y-151640171D01*
X98752814Y-151695624D01*
X97556792Y-152387964D01*
X97512221Y-152403399D01*
X95964058Y-152624752D01*
X95946507Y-152626000D01*
X75748671Y-152626000D01*
X75747173Y-152626074D01*
X75747143Y-152626075D01*
X75202371Y-152653089D01*
X75166156Y-152649539D01*
X74184938Y-152404234D01*
X74152890Y-152391253D01*
X72855390Y-151640171D01*
X72827575Y-151618219D01*
X72723682Y-151508762D01*
X71894712Y-150635393D01*
X71873742Y-150605485D01*
X71377942Y-149613884D01*
X71371214Y-149597642D01*
X70866000Y-148082000D01*
X70865215Y-148079847D01*
X70563763Y-147276000D01*
X81046661Y-147276000D01*
X81066006Y-147706747D01*
X81066376Y-147709485D01*
X81066378Y-147709497D01*
X81123511Y-148131266D01*
X81123885Y-148134026D01*
X81219832Y-148554397D01*
X81353074Y-148964475D01*
X81522539Y-149360958D01*
X81523853Y-149363401D01*
X81523858Y-149363410D01*
X81725545Y-149738206D01*
X81726863Y-149740655D01*
X81964399Y-150100507D01*
X82233236Y-150437619D01*
X82531210Y-150749274D01*
X82533297Y-150751097D01*
X82533304Y-150751104D01*
X82620694Y-150827454D01*
X82855920Y-151032965D01*
X83204753Y-151286407D01*
X83574900Y-151507560D01*
X83963381Y-151694643D01*
X84367069Y-151846149D01*
X84782711Y-151960859D01*
X85206964Y-152037850D01*
X85636409Y-152076500D01*
X85639186Y-152076500D01*
X86064814Y-152076500D01*
X86067591Y-152076500D01*
X86497036Y-152037850D01*
X86921289Y-151960859D01*
X87336931Y-151846149D01*
X87740619Y-151694643D01*
X88129100Y-151507560D01*
X88499247Y-151286407D01*
X88848080Y-151032965D01*
X89172790Y-150749274D01*
X89470764Y-150437619D01*
X89739601Y-150100507D01*
X89977137Y-149740655D01*
X90181461Y-149360958D01*
X90350926Y-148964475D01*
X90484168Y-148554397D01*
X90580115Y-148134026D01*
X90637994Y-147706747D01*
X90657339Y-147276000D01*
X90637994Y-146845253D01*
X90580115Y-146417974D01*
X90484168Y-145997603D01*
X90350926Y-145587525D01*
X90181461Y-145191042D01*
X89977137Y-144811345D01*
X89739601Y-144451493D01*
X89470764Y-144114381D01*
X89172790Y-143802726D01*
X89170702Y-143800902D01*
X89170695Y-143800895D01*
X88850172Y-143520863D01*
X88848080Y-143519035D01*
X88499247Y-143265593D01*
X88320096Y-143158555D01*
X88131474Y-143045858D01*
X88131467Y-143045854D01*
X88129100Y-143044440D01*
X88126611Y-143043241D01*
X88126603Y-143043237D01*
X87880413Y-142924678D01*
X87740619Y-142857357D01*
X87738015Y-142856379D01*
X87738004Y-142856375D01*
X87339541Y-142706830D01*
X87339530Y-142706826D01*
X87336931Y-142705851D01*
X87334246Y-142705110D01*
X87334243Y-142705109D01*
X86923978Y-142591883D01*
X86923975Y-142591882D01*
X86921289Y-142591141D01*
X86918557Y-142590645D01*
X86918543Y-142590642D01*
X86499776Y-142514647D01*
X86499770Y-142514646D01*
X86497036Y-142514150D01*
X86494284Y-142513902D01*
X86494267Y-142513900D01*
X86070354Y-142475748D01*
X86070339Y-142475747D01*
X86067591Y-142475500D01*
X85636409Y-142475500D01*
X85633661Y-142475747D01*
X85633645Y-142475748D01*
X85209732Y-142513900D01*
X85209712Y-142513902D01*
X85206964Y-142514150D01*
X85204232Y-142514645D01*
X85204223Y-142514647D01*
X84785456Y-142590642D01*
X84785437Y-142590646D01*
X84782711Y-142591141D01*
X84780029Y-142591881D01*
X84780021Y-142591883D01*
X84369756Y-142705109D01*
X84369747Y-142705111D01*
X84367069Y-142705851D01*
X84364476Y-142706824D01*
X84364458Y-142706830D01*
X83965995Y-142856375D01*
X83965976Y-142856382D01*
X83963381Y-142857357D01*
X83960871Y-142858565D01*
X83960868Y-142858567D01*
X83577396Y-143043237D01*
X83577378Y-143043246D01*
X83574900Y-143044440D01*
X83572541Y-143045848D01*
X83572525Y-143045858D01*
X83207136Y-143264169D01*
X83204753Y-143265593D01*
X83202508Y-143267223D01*
X83202499Y-143267230D01*
X82858169Y-143517400D01*
X82858154Y-143517411D01*
X82855920Y-143519035D01*
X82853834Y-143520856D01*
X82853827Y-143520863D01*
X82533304Y-143800895D01*
X82533285Y-143800912D01*
X82531210Y-143802726D01*
X82529290Y-143804733D01*
X82529287Y-143804737D01*
X82235155Y-144112373D01*
X82235145Y-144112383D01*
X82233236Y-144114381D01*
X82231517Y-144116536D01*
X82231507Y-144116548D01*
X81966136Y-144449314D01*
X81966128Y-144449323D01*
X81964399Y-144451493D01*
X81962872Y-144453805D01*
X81962862Y-144453820D01*
X81728397Y-144809020D01*
X81728390Y-144809031D01*
X81726863Y-144811345D01*
X81725551Y-144813781D01*
X81725545Y-144813793D01*
X81523858Y-145188589D01*
X81523849Y-145188606D01*
X81522539Y-145191042D01*
X81521444Y-145193602D01*
X81521441Y-145193610D01*
X81354175Y-145584947D01*
X81354168Y-145584964D01*
X81353074Y-145587525D01*
X81352211Y-145590178D01*
X81352209Y-145590186D01*
X81301857Y-145745156D01*
X81219832Y-145997603D01*
X81219216Y-146000301D01*
X81219214Y-146000309D01*
X81124505Y-146415256D01*
X81123885Y-146417974D01*
X81123512Y-146420727D01*
X81123511Y-146420733D01*
X81066378Y-146842502D01*
X81066376Y-146842516D01*
X81066006Y-146845253D01*
X81065881Y-146848023D01*
X81065881Y-146848030D01*
X81049585Y-147210896D01*
X81046661Y-147276000D01*
X70563763Y-147276000D01*
X70104000Y-146050001D01*
X70104000Y-146050000D01*
X68834000Y-144018000D01*
X67428272Y-142549728D01*
X67325654Y-142475748D01*
X66297525Y-141734541D01*
X66290657Y-141729214D01*
X64770000Y-140461999D01*
X62995736Y-139448135D01*
X62995737Y-139448135D01*
X62992000Y-139446000D01*
X62988005Y-139444402D01*
X62988003Y-139444401D01*
X61725901Y-138939560D01*
X61725895Y-138939558D01*
X61722000Y-138938000D01*
X61717932Y-138936983D01*
X61717926Y-138936981D01*
X61046387Y-138769096D01*
X60710612Y-138685153D01*
X60701488Y-138682496D01*
X59963089Y-138436363D01*
X59927901Y-138417926D01*
X59597406Y-138170055D01*
X58935048Y-137673285D01*
X58921767Y-137661767D01*
X58183997Y-136923997D01*
X58156547Y-136882368D01*
X58067977Y-136660944D01*
X57661838Y-135645595D01*
X57655803Y-135625901D01*
X57567602Y-135220446D01*
X57518697Y-134995629D01*
X57354834Y-134242356D01*
X57352000Y-134215998D01*
X57352000Y-133604000D01*
X89662000Y-133604000D01*
X89662281Y-133607094D01*
X89662282Y-133607112D01*
X89788999Y-135001000D01*
X90296999Y-135763000D01*
X91058998Y-136270999D01*
X91059000Y-136271000D01*
X92202000Y-136398000D01*
X92205420Y-136398000D01*
X104394001Y-136398000D01*
X105283000Y-136144000D01*
X105918000Y-135636000D01*
X106250443Y-135220446D01*
X106426000Y-135001000D01*
X106680000Y-133858000D01*
X106680000Y-108966000D01*
X106426000Y-107950000D01*
X106425999Y-107949998D01*
X105918000Y-107187999D01*
X105156001Y-106680000D01*
X104774999Y-106553000D01*
X104394000Y-106426000D01*
X92075000Y-106426000D01*
X92074999Y-106426000D01*
X91185999Y-106679999D01*
X90550999Y-107187999D01*
X90043000Y-107822999D01*
X89916343Y-108962907D01*
X89916342Y-108962920D01*
X89916000Y-108966000D01*
X89915968Y-108969103D01*
X89915967Y-108969120D01*
X89662032Y-133600868D01*
X89662000Y-133604000D01*
X57352000Y-133604000D01*
X57352000Y-104902000D01*
X85200540Y-104902000D01*
X85220326Y-105090257D01*
X85278820Y-105270284D01*
X85373466Y-105434216D01*
X85500129Y-105574889D01*
X85653269Y-105686151D01*
X85826197Y-105763144D01*
X86011352Y-105802500D01*
X86011354Y-105802500D01*
X86200648Y-105802500D01*
X86324084Y-105776262D01*
X86385803Y-105763144D01*
X86558730Y-105686151D01*
X86558730Y-105686150D01*
X86563563Y-105683999D01*
X86632813Y-105674714D01*
X86664435Y-105683999D01*
X86842197Y-105763144D01*
X87027352Y-105802500D01*
X87027354Y-105802500D01*
X87216648Y-105802500D01*
X87340083Y-105776262D01*
X87401803Y-105763144D01*
X87574730Y-105686151D01*
X87727871Y-105574888D01*
X87854533Y-105434216D01*
X87949179Y-105270284D01*
X88007674Y-105090256D01*
X88027460Y-104902000D01*
X88007674Y-104713744D01*
X87949179Y-104533716D01*
X87949179Y-104533715D01*
X87854533Y-104369783D01*
X87779350Y-104286284D01*
X87749120Y-104223293D01*
X87747500Y-104203312D01*
X87747500Y-104109742D01*
X92975500Y-104109742D01*
X92975816Y-104112853D01*
X92975817Y-104112865D01*
X92990926Y-104261440D01*
X92993722Y-104270351D01*
X93051841Y-104455588D01*
X93150591Y-104633502D01*
X93283134Y-104787895D01*
X93444042Y-104912448D01*
X93626729Y-105002060D01*
X93823715Y-105053063D01*
X94026936Y-105063369D01*
X94026936Y-105063368D01*
X94026937Y-105063369D01*
X94228071Y-105032556D01*
X94310413Y-105002060D01*
X94418887Y-104961886D01*
X94591571Y-104854252D01*
X94739053Y-104714059D01*
X94855295Y-104547049D01*
X94935540Y-104360058D01*
X94976500Y-104160741D01*
X94976500Y-103408258D01*
X94961074Y-103256562D01*
X94900159Y-103062412D01*
X94801409Y-102884498D01*
X94756414Y-102832085D01*
X94727682Y-102768396D01*
X94726500Y-102751315D01*
X94726500Y-100841000D01*
X94746185Y-100773961D01*
X94748725Y-100770163D01*
X94808348Y-100684500D01*
X94855295Y-100617049D01*
X94858645Y-100609241D01*
X94903169Y-100555396D01*
X94969737Y-100534171D01*
X95037213Y-100552304D01*
X95048084Y-100559763D01*
X95115767Y-100611698D01*
X95255764Y-100669687D01*
X95368280Y-100684500D01*
X95372333Y-100684500D01*
X95439667Y-100684500D01*
X95443720Y-100684500D01*
X95556236Y-100669687D01*
X95696233Y-100611698D01*
X95816451Y-100519451D01*
X95908698Y-100399233D01*
X95966687Y-100259236D01*
X95986466Y-100109000D01*
X95986466Y-100108999D01*
X100605533Y-100108999D01*
X100625312Y-100259235D01*
X100661529Y-100346669D01*
X100683302Y-100399233D01*
X100775549Y-100519451D01*
X100895767Y-100611698D01*
X101035764Y-100669687D01*
X101148280Y-100684500D01*
X101152333Y-100684500D01*
X101219667Y-100684500D01*
X101223720Y-100684500D01*
X101336236Y-100669687D01*
X101476233Y-100611698D01*
X101546854Y-100557507D01*
X101612023Y-100532313D01*
X101680468Y-100546351D01*
X101730458Y-100595164D01*
X101730639Y-100595490D01*
X101790591Y-100703502D01*
X101835586Y-100755914D01*
X101864318Y-100819600D01*
X101865500Y-100836683D01*
X101865500Y-102747000D01*
X101845815Y-102814039D01*
X101843275Y-102817837D01*
X101736705Y-102970950D01*
X101697456Y-103062412D01*
X101656460Y-103157942D01*
X101615500Y-103357259D01*
X101615500Y-104109742D01*
X101615816Y-104112853D01*
X101615817Y-104112865D01*
X101630926Y-104261440D01*
X101633722Y-104270351D01*
X101691841Y-104455588D01*
X101790591Y-104633502D01*
X101923134Y-104787895D01*
X102084042Y-104912448D01*
X102266729Y-105002060D01*
X102463715Y-105053063D01*
X102666936Y-105063369D01*
X102666936Y-105063368D01*
X102666937Y-105063369D01*
X102868071Y-105032556D01*
X102950413Y-105002060D01*
X103058887Y-104961886D01*
X103231571Y-104854252D01*
X103379053Y-104714059D01*
X103495295Y-104547049D01*
X103575540Y-104360058D01*
X103616500Y-104160741D01*
X103616500Y-103408258D01*
X103601074Y-103256562D01*
X103540159Y-103062412D01*
X103441409Y-102884498D01*
X103396414Y-102832085D01*
X103367682Y-102768396D01*
X103366500Y-102751315D01*
X103366500Y-100841000D01*
X103386185Y-100773961D01*
X103388725Y-100770163D01*
X103435124Y-100703499D01*
X103495295Y-100617049D01*
X103575540Y-100430058D01*
X103616500Y-100230741D01*
X103616500Y-98978258D01*
X103601074Y-98826562D01*
X103540159Y-98632412D01*
X103441409Y-98454498D01*
X103308866Y-98300105D01*
X103147958Y-98175552D01*
X103147957Y-98175551D01*
X102965272Y-98085940D01*
X102899608Y-98068938D01*
X102768285Y-98034937D01*
X102747670Y-98033891D01*
X102565062Y-98024630D01*
X102363928Y-98055443D01*
X102173113Y-98126113D01*
X102000431Y-98233745D01*
X101930623Y-98300104D01*
X101852947Y-98373941D01*
X101852946Y-98373943D01*
X101736705Y-98540950D01*
X101656460Y-98727941D01*
X101615499Y-98927260D01*
X101615499Y-99478408D01*
X101595814Y-99545448D01*
X101543010Y-99591202D01*
X101473852Y-99601146D01*
X101444047Y-99592969D01*
X101336237Y-99548313D01*
X101227739Y-99534029D01*
X101227737Y-99534028D01*
X101223720Y-99533500D01*
X101148280Y-99533500D01*
X101144263Y-99534028D01*
X101144260Y-99534029D01*
X101035764Y-99548313D01*
X100895768Y-99606301D01*
X100775549Y-99698549D01*
X100683301Y-99818768D01*
X100625312Y-99958764D01*
X100605533Y-100108999D01*
X95986466Y-100108999D01*
X95966687Y-99958764D01*
X95908698Y-99818767D01*
X95816451Y-99698549D01*
X95696233Y-99606302D01*
X95683785Y-99601146D01*
X95606574Y-99569164D01*
X95556236Y-99548313D01*
X95497356Y-99540561D01*
X95447739Y-99534029D01*
X95447737Y-99534028D01*
X95443720Y-99533500D01*
X95368280Y-99533500D01*
X95364263Y-99534028D01*
X95364260Y-99534029D01*
X95255762Y-99548313D01*
X95147951Y-99592970D01*
X95078482Y-99600439D01*
X95016003Y-99569164D01*
X94980351Y-99509075D01*
X94976499Y-99478409D01*
X94976499Y-99478408D01*
X94976500Y-98978258D01*
X94961074Y-98826562D01*
X94900159Y-98632412D01*
X94801409Y-98454498D01*
X94668866Y-98300105D01*
X94507958Y-98175552D01*
X94507957Y-98175551D01*
X94325272Y-98085940D01*
X94259608Y-98068938D01*
X94128285Y-98034937D01*
X94107670Y-98033891D01*
X93925062Y-98024630D01*
X93723928Y-98055443D01*
X93533113Y-98126113D01*
X93360431Y-98233745D01*
X93290623Y-98300104D01*
X93212947Y-98373941D01*
X93212946Y-98373943D01*
X93096705Y-98540950D01*
X93057456Y-98632412D01*
X93016460Y-98727942D01*
X92975500Y-98927259D01*
X92975500Y-100179742D01*
X92975816Y-100182853D01*
X92975817Y-100182865D01*
X92990926Y-100331440D01*
X93012196Y-100399231D01*
X93051841Y-100525588D01*
X93066670Y-100552304D01*
X93131821Y-100669686D01*
X93150591Y-100703502D01*
X93195586Y-100755914D01*
X93224318Y-100819600D01*
X93225500Y-100836683D01*
X93225500Y-102747000D01*
X93205815Y-102814039D01*
X93203275Y-102817837D01*
X93096705Y-102970950D01*
X93057456Y-103062412D01*
X93016460Y-103157942D01*
X92975500Y-103357259D01*
X92975500Y-104109742D01*
X87747500Y-104109742D01*
X87747500Y-103060687D01*
X87767185Y-102993648D01*
X87779350Y-102977714D01*
X87854533Y-102894216D01*
X87860145Y-102884497D01*
X87949179Y-102730284D01*
X87949178Y-102730283D01*
X88007674Y-102550256D01*
X88027460Y-102362000D01*
X88007674Y-102173744D01*
X87977332Y-102080363D01*
X87949179Y-101993715D01*
X87854533Y-101829783D01*
X87727870Y-101689110D01*
X87574730Y-101577848D01*
X87401802Y-101500855D01*
X87216648Y-101461500D01*
X87216646Y-101461500D01*
X87027354Y-101461500D01*
X87027352Y-101461500D01*
X86842201Y-101500854D01*
X86664436Y-101580001D01*
X86595186Y-101589285D01*
X86563564Y-101580001D01*
X86462309Y-101534919D01*
X86385803Y-101500856D01*
X86385802Y-101500855D01*
X86385798Y-101500854D01*
X86200648Y-101461500D01*
X86200646Y-101461500D01*
X86011354Y-101461500D01*
X86011352Y-101461500D01*
X85826197Y-101500855D01*
X85653269Y-101577848D01*
X85500129Y-101689110D01*
X85373466Y-101829783D01*
X85278820Y-101993715D01*
X85220326Y-102173742D01*
X85200540Y-102361999D01*
X85220326Y-102550257D01*
X85278820Y-102730284D01*
X85373464Y-102894213D01*
X85373467Y-102894216D01*
X85442559Y-102970950D01*
X85448650Y-102977714D01*
X85478880Y-103040706D01*
X85480500Y-103060687D01*
X85480500Y-104203312D01*
X85460815Y-104270351D01*
X85448650Y-104286284D01*
X85373466Y-104369783D01*
X85278820Y-104533715D01*
X85220326Y-104713742D01*
X85200540Y-104902000D01*
X57352000Y-104902000D01*
X57352000Y-103033578D01*
X73991500Y-103033578D01*
X73991501Y-103036872D01*
X73997909Y-103096483D01*
X74048204Y-103231331D01*
X74134454Y-103346546D01*
X74249669Y-103432796D01*
X74384517Y-103483091D01*
X74444127Y-103489500D01*
X76939872Y-103489499D01*
X76999483Y-103483091D01*
X77134331Y-103432796D01*
X77249546Y-103346546D01*
X77335796Y-103231331D01*
X77386091Y-103096483D01*
X77392500Y-103036873D01*
X77392499Y-102512487D01*
X77412183Y-102445451D01*
X77464987Y-102399696D01*
X77534146Y-102389752D01*
X77597702Y-102418777D01*
X77631927Y-102467187D01*
X77656058Y-102528670D01*
X77783456Y-102749331D01*
X77825452Y-102801993D01*
X77825453Y-102801993D01*
X78629226Y-101998219D01*
X78667901Y-102091588D01*
X78764075Y-102216925D01*
X78889412Y-102313099D01*
X78982779Y-102351772D01*
X78178813Y-103155737D01*
X78339619Y-103265372D01*
X78569179Y-103375922D01*
X78812654Y-103451025D01*
X79064603Y-103489000D01*
X79319397Y-103489000D01*
X79571345Y-103451025D01*
X79814823Y-103375921D01*
X80044383Y-103265372D01*
X80205185Y-103155737D01*
X79401220Y-102351772D01*
X79494588Y-102313099D01*
X79619925Y-102216925D01*
X79716099Y-102091589D01*
X79754772Y-101998220D01*
X80558545Y-102801993D01*
X80558546Y-102801992D01*
X80600545Y-102749328D01*
X80727942Y-102528669D01*
X80821028Y-102291491D01*
X80877726Y-102043080D01*
X80896767Y-101789000D01*
X80877726Y-101534919D01*
X80821028Y-101286508D01*
X80727942Y-101049330D01*
X80600545Y-100828671D01*
X80558546Y-100776005D01*
X79754772Y-101579779D01*
X79716099Y-101486412D01*
X79619925Y-101361075D01*
X79494588Y-101264901D01*
X79401220Y-101226227D01*
X80205185Y-100422261D01*
X80044379Y-100312625D01*
X79814823Y-100202078D01*
X79571345Y-100126974D01*
X79319397Y-100089000D01*
X79064603Y-100089000D01*
X78812654Y-100126974D01*
X78569179Y-100202077D01*
X78339615Y-100312628D01*
X78178813Y-100422261D01*
X78982779Y-101226227D01*
X78889412Y-101264901D01*
X78764075Y-101361075D01*
X78667901Y-101486411D01*
X78629227Y-101579779D01*
X77825453Y-100776006D01*
X77783453Y-100828673D01*
X77656058Y-101049329D01*
X77631927Y-101110814D01*
X77589111Y-101166027D01*
X77523241Y-101189328D01*
X77455230Y-101173317D01*
X77406672Y-101123079D01*
X77392499Y-101065511D01*
X77392499Y-100544439D01*
X77392499Y-100541128D01*
X77386091Y-100481517D01*
X77335796Y-100346669D01*
X77249546Y-100231454D01*
X77134331Y-100145204D01*
X76999483Y-100094909D01*
X76999483Y-100094908D01*
X76943166Y-100088854D01*
X76943165Y-100088853D01*
X76939873Y-100088500D01*
X76936550Y-100088500D01*
X74447439Y-100088500D01*
X74447420Y-100088500D01*
X74444128Y-100088501D01*
X74440848Y-100088853D01*
X74440840Y-100088854D01*
X74384515Y-100094909D01*
X74249669Y-100145204D01*
X74134454Y-100231454D01*
X74048204Y-100346668D01*
X73997909Y-100481516D01*
X73992448Y-100532313D01*
X73991500Y-100541127D01*
X73991500Y-100544448D01*
X73991500Y-100544449D01*
X73991500Y-103033560D01*
X73991500Y-103033578D01*
X57352000Y-103033578D01*
X57352000Y-96138999D01*
X87513659Y-96138999D01*
X87532976Y-96335133D01*
X87590185Y-96523726D01*
X87590186Y-96523727D01*
X87683090Y-96697538D01*
X87808117Y-96849883D01*
X87960462Y-96974910D01*
X88134273Y-97067814D01*
X88322868Y-97125024D01*
X88519000Y-97144341D01*
X88715132Y-97125024D01*
X88903727Y-97067814D01*
X89037730Y-96996188D01*
X89088310Y-96969153D01*
X89089205Y-96970828D01*
X89139638Y-96949406D01*
X89208506Y-96961193D01*
X89226831Y-96972970D01*
X89397639Y-97064268D01*
X89404273Y-97067814D01*
X89592868Y-97125024D01*
X89789000Y-97144341D01*
X89985132Y-97125024D01*
X90173727Y-97067814D01*
X90176337Y-97066418D01*
X90182674Y-97065098D01*
X90185414Y-97064268D01*
X90185488Y-97064512D01*
X90244738Y-97052174D01*
X90309106Y-97076510D01*
X90316910Y-97082352D01*
X90451626Y-97132599D01*
X90507867Y-97138645D01*
X90514482Y-97139000D01*
X90809000Y-97139000D01*
X90809000Y-96346672D01*
X90846871Y-96391805D01*
X90946129Y-96449112D01*
X91030564Y-96464000D01*
X91087436Y-96464000D01*
X91171871Y-96449112D01*
X91271129Y-96391805D01*
X91273483Y-96389000D01*
X91309000Y-96389000D01*
X91309000Y-97139000D01*
X91603518Y-97139000D01*
X91610132Y-97138645D01*
X91666371Y-97132599D01*
X91801089Y-97082352D01*
X91916188Y-96996188D01*
X92002352Y-96881089D01*
X92052599Y-96746371D01*
X92058645Y-96690132D01*
X92059000Y-96683518D01*
X92059000Y-96389000D01*
X91309000Y-96389000D01*
X91273483Y-96389000D01*
X91344801Y-96304007D01*
X91384000Y-96196306D01*
X91384000Y-96081694D01*
X91344801Y-95973993D01*
X91271129Y-95886195D01*
X91171871Y-95828888D01*
X91087436Y-95814000D01*
X91030564Y-95814000D01*
X90946129Y-95828888D01*
X90846871Y-95886195D01*
X90809000Y-95931327D01*
X90809000Y-95139000D01*
X91309000Y-95139000D01*
X91309000Y-95889000D01*
X92059000Y-95889000D01*
X92059000Y-95594481D01*
X92058645Y-95587867D01*
X92052599Y-95531628D01*
X92002352Y-95396910D01*
X91916188Y-95281811D01*
X91801089Y-95195647D01*
X91666371Y-95145400D01*
X91610132Y-95139354D01*
X91603518Y-95139000D01*
X91309000Y-95139000D01*
X90809000Y-95139000D01*
X90514482Y-95139000D01*
X90507867Y-95139354D01*
X90451628Y-95145400D01*
X90316908Y-95195648D01*
X90309098Y-95201495D01*
X90243632Y-95225908D01*
X90185474Y-95213527D01*
X90185413Y-95213731D01*
X90183017Y-95213004D01*
X90176341Y-95211583D01*
X90173727Y-95210186D01*
X89985133Y-95152976D01*
X89789000Y-95133659D01*
X89592866Y-95152976D01*
X89404273Y-95210185D01*
X89219691Y-95308847D01*
X89218796Y-95307173D01*
X89168345Y-95328596D01*
X89099478Y-95316800D01*
X89081161Y-95305026D01*
X88903726Y-95210185D01*
X88715133Y-95152976D01*
X88573229Y-95139000D01*
X88519000Y-95133659D01*
X88518999Y-95133659D01*
X88322866Y-95152976D01*
X88134273Y-95210185D01*
X87960463Y-95303089D01*
X87808117Y-95428117D01*
X87683089Y-95580463D01*
X87590185Y-95754273D01*
X87532976Y-95942866D01*
X87513659Y-96138999D01*
X57352000Y-96138999D01*
X57352000Y-93174498D01*
X87657042Y-93174498D01*
X87676828Y-93362755D01*
X87735322Y-93542782D01*
X87829968Y-93706714D01*
X87956631Y-93847387D01*
X88109771Y-93958649D01*
X88282699Y-94035642D01*
X88467854Y-94074998D01*
X88467856Y-94074998D01*
X88657150Y-94074998D01*
X88780585Y-94048760D01*
X88842305Y-94035642D01*
X89015232Y-93958649D01*
X89028951Y-93948681D01*
X89094758Y-93925200D01*
X89101839Y-93924998D01*
X95253960Y-93924998D01*
X95271930Y-93926307D01*
X95275986Y-93926900D01*
X95295689Y-93929787D01*
X95345034Y-93925470D01*
X95355842Y-93924998D01*
X95357766Y-93924998D01*
X95361375Y-93924998D01*
X95392216Y-93921392D01*
X95395697Y-93921037D01*
X95470463Y-93914497D01*
X95470463Y-93914496D01*
X95471718Y-93914387D01*
X95490728Y-93910172D01*
X95491916Y-93909739D01*
X95491921Y-93909739D01*
X95562486Y-93884055D01*
X95565761Y-93882917D01*
X95637000Y-93859312D01*
X95637002Y-93859310D01*
X95638202Y-93858913D01*
X95655729Y-93850427D01*
X95656778Y-93849736D01*
X95656783Y-93849735D01*
X95719472Y-93808503D01*
X95722464Y-93806597D01*
X95786322Y-93767210D01*
X95786322Y-93767209D01*
X95787395Y-93766548D01*
X95802490Y-93754251D01*
X95803358Y-93753330D01*
X95803362Y-93753328D01*
X95854851Y-93698751D01*
X95857297Y-93696233D01*
X96886496Y-92667033D01*
X96947817Y-92633550D01*
X96948190Y-92633469D01*
X97013529Y-92619582D01*
X97013530Y-92619581D01*
X97013532Y-92619581D01*
X97186456Y-92542589D01*
X97339596Y-92431327D01*
X97367520Y-92400315D01*
X97466259Y-92290654D01*
X97560905Y-92126722D01*
X97619400Y-91946694D01*
X97639186Y-91758438D01*
X97619400Y-91570182D01*
X97560905Y-91390154D01*
X97560905Y-91390153D01*
X97466259Y-91226221D01*
X97339596Y-91085548D01*
X97186456Y-90974286D01*
X97013528Y-90897293D01*
X96828374Y-90857938D01*
X96828372Y-90857938D01*
X96639080Y-90857938D01*
X96639078Y-90857938D01*
X96453923Y-90897293D01*
X96280995Y-90974286D01*
X96127855Y-91085548D01*
X96001192Y-91226221D01*
X95906547Y-91390152D01*
X95851204Y-91560478D01*
X95820954Y-91609840D01*
X95043117Y-92387679D01*
X94981794Y-92421164D01*
X94955436Y-92423998D01*
X89101839Y-92423998D01*
X89034800Y-92404313D01*
X89028952Y-92400315D01*
X89015230Y-92390345D01*
X88842304Y-92313353D01*
X88657150Y-92273998D01*
X88657148Y-92273998D01*
X88467856Y-92273998D01*
X88467854Y-92273998D01*
X88282699Y-92313353D01*
X88109771Y-92390346D01*
X87956631Y-92501608D01*
X87829968Y-92642281D01*
X87735322Y-92806213D01*
X87676828Y-92986240D01*
X87657042Y-93174498D01*
X57352000Y-93174498D01*
X57352000Y-86868000D01*
X87486540Y-86868000D01*
X87506326Y-87056257D01*
X87564820Y-87236284D01*
X87659466Y-87400216D01*
X87732205Y-87481000D01*
X87762435Y-87543991D01*
X87763994Y-87560077D01*
X87766439Y-87637872D01*
X87766500Y-87641767D01*
X87766500Y-87669350D01*
X87766988Y-87673219D01*
X87766989Y-87673225D01*
X87767004Y-87673343D01*
X87767918Y-87684967D01*
X87769290Y-87728626D01*
X87774879Y-87747860D01*
X87778825Y-87766916D01*
X87781335Y-87786792D01*
X87797414Y-87827404D01*
X87801197Y-87838451D01*
X87813382Y-87880391D01*
X87823580Y-87897635D01*
X87832136Y-87915100D01*
X87839514Y-87933732D01*
X87839515Y-87933733D01*
X87865180Y-87969059D01*
X87871593Y-87978822D01*
X87893826Y-88016416D01*
X87893829Y-88016419D01*
X87893830Y-88016420D01*
X87907995Y-88030585D01*
X87920627Y-88045375D01*
X87932406Y-88061587D01*
X87966058Y-88089426D01*
X87974699Y-88097289D01*
X88469038Y-88591629D01*
X88502523Y-88652952D01*
X88504678Y-88666348D01*
X88522326Y-88834257D01*
X88580820Y-89014284D01*
X88675466Y-89178216D01*
X88802129Y-89318889D01*
X88955269Y-89430151D01*
X89128197Y-89507144D01*
X89313352Y-89546500D01*
X89313354Y-89546500D01*
X89502648Y-89546500D01*
X89626083Y-89520262D01*
X89687803Y-89507144D01*
X89860730Y-89430151D01*
X90013871Y-89318888D01*
X90140533Y-89178216D01*
X90235179Y-89014284D01*
X90293674Y-88834256D01*
X90313460Y-88646000D01*
X90293674Y-88457744D01*
X90235179Y-88277716D01*
X90235179Y-88277715D01*
X90140533Y-88113783D01*
X90013870Y-87973110D01*
X89860730Y-87861848D01*
X89687802Y-87784855D01*
X89502648Y-87745500D01*
X89502646Y-87745500D01*
X89443452Y-87745500D01*
X89376413Y-87725815D01*
X89355771Y-87709181D01*
X89163363Y-87516772D01*
X89129878Y-87455449D01*
X89134862Y-87385757D01*
X89143651Y-87367101D01*
X89219179Y-87236284D01*
X89277674Y-87056256D01*
X89297460Y-86868000D01*
X89277674Y-86679744D01*
X89219179Y-86499716D01*
X89219179Y-86499715D01*
X89124533Y-86335783D01*
X88997870Y-86195110D01*
X88844730Y-86083848D01*
X88671802Y-86006855D01*
X88486648Y-85967500D01*
X88486646Y-85967500D01*
X88297354Y-85967500D01*
X88297352Y-85967500D01*
X88112197Y-86006855D01*
X87939269Y-86083848D01*
X87786129Y-86195110D01*
X87659466Y-86335783D01*
X87564820Y-86499715D01*
X87506326Y-86679742D01*
X87486540Y-86868000D01*
X57352000Y-86868000D01*
X57352000Y-85115000D01*
X67293540Y-85115000D01*
X67313326Y-85303257D01*
X67371820Y-85483284D01*
X67466466Y-85647216D01*
X67593129Y-85787889D01*
X67746269Y-85899151D01*
X67919197Y-85976144D01*
X68104352Y-86015500D01*
X68104354Y-86015500D01*
X68293648Y-86015500D01*
X68417083Y-85989262D01*
X68478803Y-85976144D01*
X68651730Y-85899151D01*
X68665449Y-85889183D01*
X68731256Y-85865702D01*
X68738337Y-85865500D01*
X69380294Y-85865500D01*
X69398264Y-85866809D01*
X69402320Y-85867402D01*
X69422023Y-85870289D01*
X69471368Y-85865972D01*
X69482176Y-85865500D01*
X69484100Y-85865500D01*
X69487709Y-85865500D01*
X69518550Y-85861894D01*
X69522031Y-85861539D01*
X69596797Y-85854999D01*
X69596797Y-85854998D01*
X69598052Y-85854889D01*
X69617062Y-85850674D01*
X69618250Y-85850241D01*
X69618255Y-85850241D01*
X69688820Y-85824557D01*
X69692095Y-85823419D01*
X69763334Y-85799814D01*
X69763336Y-85799812D01*
X69764536Y-85799415D01*
X69782063Y-85790929D01*
X69783112Y-85790238D01*
X69783117Y-85790237D01*
X69845806Y-85749005D01*
X69848798Y-85747099D01*
X69912656Y-85707712D01*
X69912656Y-85707711D01*
X69913729Y-85707050D01*
X69928824Y-85694753D01*
X69929692Y-85693832D01*
X69929696Y-85693830D01*
X69981184Y-85639254D01*
X69983630Y-85636736D01*
X70149367Y-85470999D01*
X94217540Y-85470999D01*
X94237326Y-85659257D01*
X94295820Y-85839284D01*
X94390466Y-86003216D01*
X94517129Y-86143889D01*
X94670269Y-86255151D01*
X94843197Y-86332144D01*
X95028352Y-86371500D01*
X95028354Y-86371500D01*
X95052192Y-86371500D01*
X95119231Y-86391185D01*
X95139873Y-86407819D01*
X95999564Y-87267510D01*
X96012911Y-87284169D01*
X96065832Y-87333864D01*
X96068629Y-87336575D01*
X96088965Y-87356911D01*
X96092036Y-87359293D01*
X96092437Y-87359604D01*
X96101323Y-87367192D01*
X96134607Y-87398448D01*
X96145251Y-87404299D01*
X96153204Y-87408672D01*
X96169464Y-87419352D01*
X96186236Y-87432362D01*
X96228140Y-87450495D01*
X96238620Y-87455629D01*
X96278632Y-87477627D01*
X96299195Y-87482906D01*
X96317598Y-87489207D01*
X96337073Y-87497635D01*
X96382175Y-87504778D01*
X96393570Y-87507137D01*
X96437823Y-87518500D01*
X96459051Y-87518500D01*
X96478449Y-87520026D01*
X96499405Y-87523346D01*
X96544851Y-87519050D01*
X96556521Y-87518500D01*
X98676525Y-87518500D01*
X98743564Y-87538185D01*
X98749394Y-87542170D01*
X98900770Y-87652151D01*
X98900771Y-87652151D01*
X98900772Y-87652152D01*
X99073697Y-87729144D01*
X99258852Y-87768500D01*
X99258854Y-87768500D01*
X99448148Y-87768500D01*
X99571584Y-87742262D01*
X99633303Y-87729144D01*
X99806230Y-87652151D01*
X99820522Y-87641767D01*
X99959370Y-87540889D01*
X99991064Y-87505690D01*
X100086033Y-87400216D01*
X100180679Y-87236284D01*
X100239174Y-87056256D01*
X100258960Y-86868000D01*
X100239174Y-86679744D01*
X100180679Y-86499716D01*
X100180679Y-86499715D01*
X100086033Y-86335783D01*
X99959370Y-86195110D01*
X99806230Y-86083848D01*
X99633302Y-86006855D01*
X99448148Y-85967500D01*
X99448146Y-85967500D01*
X99258854Y-85967500D01*
X99258852Y-85967500D01*
X99073697Y-86006855D01*
X98900772Y-86083847D01*
X98834037Y-86132332D01*
X98749409Y-86193818D01*
X98683604Y-86217298D01*
X98676525Y-86217500D01*
X96840808Y-86217500D01*
X96773769Y-86197815D01*
X96753127Y-86181181D01*
X96057808Y-85485862D01*
X96024323Y-85424539D01*
X96022168Y-85411141D01*
X96008674Y-85282742D01*
X95950179Y-85102715D01*
X95855533Y-84938783D01*
X95728870Y-84798110D01*
X95575730Y-84686848D01*
X95402802Y-84609855D01*
X95217648Y-84570500D01*
X95217646Y-84570500D01*
X95028354Y-84570500D01*
X95028352Y-84570500D01*
X94843197Y-84609855D01*
X94670269Y-84686848D01*
X94517129Y-84798110D01*
X94390466Y-84938783D01*
X94295820Y-85102715D01*
X94237326Y-85282742D01*
X94217540Y-85470999D01*
X70149367Y-85470999D01*
X70256771Y-85363595D01*
X70318092Y-85330112D01*
X70318488Y-85330026D01*
X70383803Y-85316144D01*
X70383804Y-85316143D01*
X70383806Y-85316143D01*
X70556730Y-85239151D01*
X70709870Y-85127889D01*
X70836533Y-84987216D01*
X70931179Y-84823284D01*
X70939358Y-84798112D01*
X70989674Y-84643256D01*
X71009460Y-84455000D01*
X70989674Y-84266744D01*
X70931179Y-84086716D01*
X70931179Y-84086715D01*
X70871113Y-83982677D01*
X70854500Y-83920677D01*
X70854500Y-83788815D01*
X82787540Y-83788815D01*
X82807326Y-83977072D01*
X82865820Y-84157099D01*
X82960466Y-84321031D01*
X83087129Y-84461704D01*
X83240269Y-84572966D01*
X83413197Y-84649959D01*
X83598352Y-84689315D01*
X83598354Y-84689315D01*
X83787648Y-84689315D01*
X83911083Y-84663077D01*
X83972803Y-84649959D01*
X84145730Y-84572966D01*
X84298871Y-84461703D01*
X84304598Y-84455342D01*
X84364084Y-84418694D01*
X84396747Y-84414315D01*
X86771172Y-84414315D01*
X86838211Y-84434000D01*
X86863321Y-84455342D01*
X86897128Y-84492888D01*
X87050269Y-84604151D01*
X87223197Y-84681144D01*
X87408352Y-84720500D01*
X87408354Y-84720500D01*
X87597648Y-84720500D01*
X87744361Y-84689315D01*
X87782803Y-84681144D01*
X87955730Y-84604151D01*
X88108871Y-84492888D01*
X88235533Y-84352216D01*
X88330179Y-84188284D01*
X88388674Y-84008256D01*
X88408460Y-83820000D01*
X88388674Y-83631744D01*
X88364237Y-83556538D01*
X88362243Y-83486698D01*
X88398323Y-83426865D01*
X88431731Y-83404942D01*
X88590730Y-83334151D01*
X88590730Y-83334150D01*
X88590732Y-83334150D01*
X88743870Y-83222889D01*
X88870533Y-83082216D01*
X88965179Y-82918284D01*
X88965179Y-82918283D01*
X89023674Y-82738256D01*
X89043460Y-82550000D01*
X89023674Y-82361744D01*
X88965179Y-82181716D01*
X88965179Y-82181715D01*
X88870533Y-82017783D01*
X88743870Y-81877110D01*
X88590730Y-81765848D01*
X88494998Y-81723225D01*
X88441761Y-81677975D01*
X88421440Y-81611126D01*
X88440485Y-81543902D01*
X88453285Y-81526973D01*
X88489533Y-81486716D01*
X88584179Y-81322784D01*
X88642674Y-81142756D01*
X88654945Y-81026000D01*
X90788540Y-81026000D01*
X90808326Y-81214257D01*
X90866820Y-81394284D01*
X90961466Y-81558216D01*
X91088129Y-81698889D01*
X91241269Y-81810151D01*
X91414197Y-81887144D01*
X91599352Y-81926500D01*
X91599354Y-81926500D01*
X91788648Y-81926500D01*
X91912083Y-81900262D01*
X91973803Y-81887144D01*
X92146730Y-81810151D01*
X92298090Y-81700181D01*
X92363896Y-81676702D01*
X92370975Y-81676500D01*
X92668025Y-81676500D01*
X92735064Y-81696185D01*
X92740894Y-81700170D01*
X92892270Y-81810151D01*
X92892271Y-81810151D01*
X92892272Y-81810152D01*
X93065197Y-81887144D01*
X93250352Y-81926500D01*
X93250354Y-81926500D01*
X93439648Y-81926500D01*
X93563084Y-81900262D01*
X93624803Y-81887144D01*
X93797730Y-81810151D01*
X93920603Y-81720879D01*
X93950870Y-81698889D01*
X94016892Y-81625565D01*
X94077533Y-81558216D01*
X94172179Y-81394284D01*
X94230674Y-81214256D01*
X94250460Y-81026000D01*
X94230674Y-80837744D01*
X94172179Y-80657716D01*
X94172179Y-80657715D01*
X94077533Y-80493783D01*
X93950870Y-80353110D01*
X93797730Y-80241848D01*
X93624802Y-80164855D01*
X93439648Y-80125500D01*
X93439646Y-80125500D01*
X93250354Y-80125500D01*
X93250352Y-80125500D01*
X93065197Y-80164855D01*
X92892272Y-80241847D01*
X92834836Y-80283577D01*
X92740909Y-80351818D01*
X92675104Y-80375298D01*
X92668025Y-80375500D01*
X92370975Y-80375500D01*
X92303936Y-80355815D01*
X92298105Y-80351829D01*
X92146730Y-80241849D01*
X92146729Y-80241848D01*
X92146727Y-80241847D01*
X91973802Y-80164855D01*
X91788648Y-80125500D01*
X91788646Y-80125500D01*
X91599354Y-80125500D01*
X91599352Y-80125500D01*
X91414197Y-80164855D01*
X91241269Y-80241848D01*
X91088129Y-80353110D01*
X90961466Y-80493783D01*
X90866820Y-80657715D01*
X90808326Y-80837742D01*
X90788540Y-81026000D01*
X88654945Y-81026000D01*
X88662460Y-80954500D01*
X88642674Y-80766244D01*
X88587832Y-80597458D01*
X88584179Y-80586215D01*
X88489533Y-80422283D01*
X88439350Y-80366549D01*
X88409120Y-80303557D01*
X88407500Y-80283577D01*
X88407500Y-80038126D01*
X88409841Y-80016923D01*
X88409759Y-80014329D01*
X88409760Y-80014327D01*
X88407561Y-79944359D01*
X88407500Y-79940464D01*
X88407500Y-79915600D01*
X88407500Y-79911699D01*
X88406948Y-79907333D01*
X88406030Y-79895679D01*
X88404597Y-79850054D01*
X88398675Y-79829671D01*
X88394732Y-79810634D01*
X88392071Y-79789566D01*
X88375266Y-79747122D01*
X88371481Y-79736068D01*
X88358744Y-79692226D01*
X88358744Y-79692225D01*
X88347934Y-79673946D01*
X88339380Y-79656486D01*
X88331568Y-79636753D01*
X88304723Y-79599804D01*
X88298332Y-79590075D01*
X88275081Y-79550759D01*
X88260068Y-79535746D01*
X88247435Y-79520954D01*
X88234963Y-79503787D01*
X88199779Y-79474680D01*
X88191140Y-79466818D01*
X87647007Y-78922685D01*
X87613522Y-78861362D01*
X87610688Y-78835004D01*
X87610688Y-78779851D01*
X87627300Y-78717852D01*
X87695179Y-78600284D01*
X87753674Y-78420256D01*
X87773460Y-78232000D01*
X87753674Y-78043744D01*
X87723332Y-77950363D01*
X87695179Y-77863715D01*
X87600533Y-77699783D01*
X87473870Y-77559110D01*
X87320730Y-77447848D01*
X87147802Y-77370855D01*
X86962648Y-77331500D01*
X86962646Y-77331500D01*
X86773354Y-77331500D01*
X86773352Y-77331500D01*
X86588197Y-77370855D01*
X86415269Y-77447848D01*
X86262129Y-77559110D01*
X86135466Y-77699783D01*
X86040820Y-77863715D01*
X85982326Y-78043742D01*
X85962540Y-78232000D01*
X85982326Y-78420257D01*
X86040820Y-78600284D01*
X86135466Y-78764216D01*
X86270850Y-78914574D01*
X86269187Y-78916071D01*
X86301235Y-78957622D01*
X86309688Y-79002622D01*
X86309688Y-79070306D01*
X86307346Y-79091514D01*
X86309627Y-79164074D01*
X86309688Y-79167969D01*
X86309688Y-79196737D01*
X86310175Y-79200597D01*
X86310177Y-79200620D01*
X86310242Y-79201132D01*
X86311156Y-79212751D01*
X86311757Y-79231851D01*
X86294190Y-79299477D01*
X86242851Y-79346870D01*
X86174040Y-79358983D01*
X86109603Y-79331971D01*
X86095669Y-79318724D01*
X86035301Y-79251680D01*
X85882161Y-79140417D01*
X85709233Y-79063424D01*
X85524079Y-79024069D01*
X85524077Y-79024069D01*
X85334785Y-79024069D01*
X85334783Y-79024069D01*
X85149628Y-79063424D01*
X84976700Y-79140417D01*
X84823560Y-79251679D01*
X84696897Y-79392352D01*
X84602251Y-79556284D01*
X84543757Y-79736311D01*
X84523971Y-79924568D01*
X84543757Y-80112826D01*
X84602251Y-80292853D01*
X84696897Y-80456785D01*
X84823560Y-80597458D01*
X84976700Y-80708720D01*
X85149628Y-80785713D01*
X85334783Y-80825069D01*
X85334785Y-80825069D01*
X85393979Y-80825069D01*
X85461018Y-80844754D01*
X85481659Y-80861387D01*
X86386119Y-81765848D01*
X87208803Y-82588532D01*
X87242288Y-82649855D01*
X87244442Y-82663246D01*
X87252326Y-82738256D01*
X87252327Y-82738259D01*
X87276761Y-82813461D01*
X87278756Y-82883302D01*
X87242675Y-82943134D01*
X87209266Y-82965057D01*
X87050269Y-83035848D01*
X86907422Y-83139633D01*
X86841616Y-83163113D01*
X86834537Y-83163315D01*
X84396747Y-83163315D01*
X84329708Y-83143630D01*
X84304599Y-83122288D01*
X84298871Y-83115927D01*
X84145730Y-83004664D01*
X84145729Y-83004663D01*
X84145727Y-83004662D01*
X83972802Y-82927670D01*
X83787648Y-82888315D01*
X83787646Y-82888315D01*
X83598354Y-82888315D01*
X83598352Y-82888315D01*
X83413197Y-82927670D01*
X83240269Y-83004663D01*
X83087129Y-83115925D01*
X82960466Y-83256598D01*
X82865820Y-83420530D01*
X82807326Y-83600557D01*
X82787540Y-83788815D01*
X70854500Y-83788815D01*
X70854500Y-82150229D01*
X70874185Y-82083190D01*
X70890814Y-82062553D01*
X73304771Y-79648595D01*
X73366092Y-79615112D01*
X73366488Y-79615026D01*
X73431803Y-79601144D01*
X73431804Y-79601143D01*
X73431806Y-79601143D01*
X73604730Y-79524151D01*
X73757870Y-79412889D01*
X73799409Y-79366756D01*
X73884533Y-79272216D01*
X73979179Y-79108284D01*
X74037674Y-78928256D01*
X74057460Y-78740000D01*
X74037674Y-78551744D01*
X73979179Y-78371716D01*
X73979179Y-78371715D01*
X73884533Y-78207783D01*
X73757870Y-78067110D01*
X73604730Y-77955848D01*
X73431802Y-77878855D01*
X73246648Y-77839500D01*
X73246646Y-77839500D01*
X73057354Y-77839500D01*
X73057352Y-77839500D01*
X72872197Y-77878855D01*
X72699269Y-77955848D01*
X72546129Y-78067110D01*
X72419466Y-78207783D01*
X72324821Y-78371714D01*
X72269478Y-78542041D01*
X72239228Y-78591403D01*
X69618358Y-81212272D01*
X69604727Y-81224053D01*
X69585468Y-81238391D01*
X69553635Y-81276328D01*
X69546338Y-81284292D01*
X69544972Y-81285657D01*
X69544950Y-81285681D01*
X69542409Y-81288223D01*
X69540173Y-81291050D01*
X69540171Y-81291053D01*
X69523176Y-81312546D01*
X69520902Y-81315337D01*
X69471894Y-81373744D01*
X69461418Y-81390187D01*
X69429192Y-81459294D01*
X69427622Y-81462536D01*
X69393393Y-81530692D01*
X69386996Y-81549098D01*
X69371573Y-81623788D01*
X69370793Y-81627305D01*
X69353208Y-81701506D01*
X69351229Y-81720879D01*
X69353448Y-81797129D01*
X69353500Y-81800735D01*
X69353500Y-83920677D01*
X69336887Y-83982677D01*
X69276820Y-84086715D01*
X69221479Y-84257038D01*
X69191231Y-84306399D01*
X69169452Y-84328179D01*
X69108130Y-84361666D01*
X69081769Y-84364500D01*
X68738337Y-84364500D01*
X68671298Y-84344815D01*
X68665450Y-84340817D01*
X68651728Y-84330847D01*
X68478802Y-84253855D01*
X68293648Y-84214500D01*
X68293646Y-84214500D01*
X68104354Y-84214500D01*
X68104352Y-84214500D01*
X67919197Y-84253855D01*
X67746269Y-84330848D01*
X67593129Y-84442110D01*
X67466466Y-84582783D01*
X67371820Y-84746715D01*
X67313326Y-84926742D01*
X67293540Y-85115000D01*
X57352000Y-85115000D01*
X57352000Y-74504578D01*
X62199500Y-74504578D01*
X62199501Y-74507872D01*
X62205909Y-74567483D01*
X62256204Y-74702331D01*
X62342454Y-74817546D01*
X62457669Y-74903796D01*
X62592517Y-74954091D01*
X62652127Y-74960500D01*
X64347872Y-74960499D01*
X64407483Y-74954091D01*
X64542331Y-74903796D01*
X64657546Y-74817546D01*
X64743796Y-74702331D01*
X64794091Y-74567483D01*
X64800500Y-74507873D01*
X64800499Y-72812128D01*
X64794091Y-72752517D01*
X64743796Y-72617669D01*
X64657546Y-72502454D01*
X64542331Y-72416204D01*
X64407483Y-72365909D01*
X64347873Y-72359500D01*
X64344550Y-72359500D01*
X62655439Y-72359500D01*
X62655420Y-72359500D01*
X62652128Y-72359501D01*
X62648848Y-72359853D01*
X62648840Y-72359854D01*
X62592515Y-72365909D01*
X62457669Y-72416204D01*
X62342454Y-72502454D01*
X62256204Y-72617668D01*
X62205910Y-72752515D01*
X62205909Y-72752517D01*
X62199500Y-72812127D01*
X62199500Y-72815448D01*
X62199500Y-72815449D01*
X62199500Y-74504560D01*
X62199500Y-74504578D01*
X57352000Y-74504578D01*
X57352000Y-70325955D01*
X57352174Y-70319389D01*
X57387138Y-69660000D01*
X62194531Y-69660000D01*
X62214364Y-69886689D01*
X62273261Y-70106497D01*
X62369432Y-70312735D01*
X62499953Y-70499140D01*
X62660859Y-70660046D01*
X62847264Y-70790567D01*
X62847265Y-70790567D01*
X62847266Y-70790568D01*
X63053504Y-70886739D01*
X63273308Y-70945635D01*
X63424435Y-70958856D01*
X63499999Y-70965468D01*
X63499999Y-70965467D01*
X63500000Y-70965468D01*
X63726692Y-70945635D01*
X63946496Y-70886739D01*
X64152734Y-70790568D01*
X64339139Y-70660047D01*
X64500047Y-70499139D01*
X64630568Y-70312734D01*
X64726739Y-70106496D01*
X64785635Y-69886692D01*
X64805468Y-69660000D01*
X64785635Y-69433308D01*
X64726739Y-69213504D01*
X64630568Y-69007266D01*
X64500047Y-68820861D01*
X64500046Y-68820859D01*
X64339140Y-68659953D01*
X64152735Y-68529432D01*
X63946497Y-68433261D01*
X63726689Y-68374364D01*
X63499999Y-68354531D01*
X63273310Y-68374364D01*
X63053502Y-68433261D01*
X62847264Y-68529432D01*
X62660859Y-68659953D01*
X62499953Y-68820859D01*
X62369432Y-69007264D01*
X62273261Y-69213502D01*
X62214364Y-69433310D01*
X62194531Y-69660000D01*
X57387138Y-69660000D01*
X57402915Y-69362460D01*
X57411610Y-69322974D01*
X57612456Y-68820859D01*
X57907303Y-68083741D01*
X57918968Y-68061452D01*
X58340509Y-67423414D01*
X58354711Y-67405693D01*
X59172696Y-66557645D01*
X59193151Y-66540565D01*
X59929848Y-66049434D01*
X59960171Y-66034726D01*
X60912232Y-65724242D01*
X60916751Y-65722863D01*
X62484000Y-65278000D01*
X64008000Y-64516000D01*
X65532000Y-63500000D01*
X66548000Y-62738000D01*
X67428272Y-62002272D01*
X68326000Y-60960000D01*
X69850000Y-58928000D01*
X70358000Y-57912000D01*
X70612400Y-57276000D01*
X81046661Y-57276000D01*
X81046786Y-57278783D01*
X81063102Y-57642096D01*
X81066006Y-57706747D01*
X81066376Y-57709485D01*
X81066378Y-57709497D01*
X81093809Y-57912000D01*
X81123885Y-58134026D01*
X81219832Y-58554397D01*
X81353074Y-58964475D01*
X81522539Y-59360958D01*
X81726863Y-59740655D01*
X81728396Y-59742978D01*
X81728397Y-59742979D01*
X81820327Y-59882248D01*
X81964399Y-60100507D01*
X82233236Y-60437619D01*
X82531210Y-60749274D01*
X82533297Y-60751097D01*
X82533304Y-60751104D01*
X82655919Y-60858229D01*
X82855920Y-61032965D01*
X83204753Y-61286407D01*
X83574900Y-61507560D01*
X83963381Y-61694643D01*
X84367069Y-61846149D01*
X84782711Y-61960859D01*
X85206964Y-62037850D01*
X85636409Y-62076500D01*
X85639186Y-62076500D01*
X86064814Y-62076500D01*
X86067591Y-62076500D01*
X86497036Y-62037850D01*
X86921289Y-61960859D01*
X87336931Y-61846149D01*
X87740619Y-61694643D01*
X88129100Y-61507560D01*
X88499247Y-61286407D01*
X88848080Y-61032965D01*
X89172790Y-60749274D01*
X89470764Y-60437619D01*
X89739601Y-60100507D01*
X89977137Y-59740655D01*
X90181461Y-59360958D01*
X90350926Y-58964475D01*
X90484168Y-58554397D01*
X90580115Y-58134026D01*
X90637994Y-57706747D01*
X90657339Y-57276000D01*
X90637994Y-56845253D01*
X90580115Y-56417974D01*
X90484168Y-55997603D01*
X90350926Y-55587525D01*
X90181461Y-55191042D01*
X89977137Y-54811345D01*
X89739601Y-54451493D01*
X89470764Y-54114381D01*
X89172790Y-53802726D01*
X89170702Y-53800902D01*
X89170695Y-53800895D01*
X88850172Y-53520863D01*
X88848080Y-53519035D01*
X88499247Y-53265593D01*
X88204896Y-53089726D01*
X88131474Y-53045858D01*
X88131467Y-53045854D01*
X88129100Y-53044440D01*
X88126611Y-53043241D01*
X88126603Y-53043237D01*
X87857087Y-52913445D01*
X87740619Y-52857357D01*
X87738015Y-52856379D01*
X87738004Y-52856375D01*
X87339541Y-52706830D01*
X87339530Y-52706826D01*
X87336931Y-52705851D01*
X87334246Y-52705110D01*
X87334243Y-52705109D01*
X86923978Y-52591883D01*
X86923975Y-52591882D01*
X86921289Y-52591141D01*
X86918557Y-52590645D01*
X86918543Y-52590642D01*
X86499776Y-52514647D01*
X86499770Y-52514646D01*
X86497036Y-52514150D01*
X86494284Y-52513902D01*
X86494267Y-52513900D01*
X86070354Y-52475748D01*
X86070339Y-52475747D01*
X86067591Y-52475500D01*
X85636409Y-52475500D01*
X85633661Y-52475747D01*
X85633645Y-52475748D01*
X85209732Y-52513900D01*
X85209712Y-52513902D01*
X85206964Y-52514150D01*
X85204232Y-52514645D01*
X85204223Y-52514647D01*
X84785456Y-52590642D01*
X84785437Y-52590646D01*
X84782711Y-52591141D01*
X84780029Y-52591881D01*
X84780021Y-52591883D01*
X84369756Y-52705109D01*
X84369747Y-52705111D01*
X84367069Y-52705851D01*
X84364476Y-52706824D01*
X84364458Y-52706830D01*
X83965995Y-52856375D01*
X83965976Y-52856382D01*
X83963381Y-52857357D01*
X83960871Y-52858565D01*
X83960868Y-52858567D01*
X83577396Y-53043237D01*
X83577378Y-53043246D01*
X83574900Y-53044440D01*
X83572541Y-53045848D01*
X83572525Y-53045858D01*
X83207136Y-53264169D01*
X83204753Y-53265593D01*
X83202508Y-53267223D01*
X83202499Y-53267230D01*
X82858169Y-53517400D01*
X82858154Y-53517411D01*
X82855920Y-53519035D01*
X82853834Y-53520856D01*
X82853827Y-53520863D01*
X82533304Y-53800895D01*
X82533285Y-53800912D01*
X82531210Y-53802726D01*
X82529290Y-53804733D01*
X82529287Y-53804737D01*
X82235155Y-54112373D01*
X82235145Y-54112383D01*
X82233236Y-54114381D01*
X82231517Y-54116536D01*
X82231507Y-54116548D01*
X81966136Y-54449314D01*
X81966128Y-54449323D01*
X81964399Y-54451493D01*
X81962872Y-54453805D01*
X81962862Y-54453820D01*
X81728397Y-54809020D01*
X81728390Y-54809031D01*
X81726863Y-54811345D01*
X81725551Y-54813781D01*
X81725545Y-54813793D01*
X81523858Y-55188589D01*
X81523849Y-55188606D01*
X81522539Y-55191042D01*
X81521444Y-55193602D01*
X81521441Y-55193610D01*
X81354175Y-55584947D01*
X81354168Y-55584964D01*
X81353074Y-55587525D01*
X81352211Y-55590178D01*
X81352209Y-55590186D01*
X81256776Y-55883901D01*
X81219832Y-55997603D01*
X81123885Y-56417974D01*
X81123512Y-56420727D01*
X81123511Y-56420733D01*
X81066378Y-56842502D01*
X81066376Y-56842516D01*
X81066006Y-56845253D01*
X81046661Y-57276000D01*
X70612400Y-57276000D01*
X70866000Y-56642000D01*
X71147150Y-55498070D01*
X71153335Y-55479428D01*
X71622090Y-54369986D01*
X71637112Y-54343850D01*
X72383397Y-53348803D01*
X72398046Y-53332502D01*
X72828837Y-52931104D01*
X72853129Y-52913445D01*
X73903925Y-52329597D01*
X73924926Y-52320357D01*
X74664893Y-52073702D01*
X74687601Y-52068442D01*
X75740462Y-51927101D01*
X75756960Y-51926000D01*
X95948618Y-51926000D01*
X95961999Y-51926724D01*
G37*
%TD.AperFunction*%
%TD*%
M02*
