M48
; DRILL file {KiCad 7.0.2} date Sat May 27 14:00:05 2023
; FORMAT={-:-/ absolute / inch / decimal}
; #@! TF.CreationDate,2023-05-27T14:00:05+09:30
; #@! TF.GenerationSoftware,Kicad,Pcbnew,7.0.2
; #@! TF.FileFunction,Plated,1,2,PTH
FMAT,2
INCH
; #@! TA.AperFunction,Plated,PTH,ViaDrill
T1C0.0157
; #@! TA.AperFunction,Plated,PTH,ComponentDrill
T2C0.0236
; #@! TA.AperFunction,Plated,PTH,ComponentDrill
T3C0.0256
; #@! TA.AperFunction,Plated,PTH,ComponentDrill
T4C0.0354
; #@! TA.AperFunction,Plated,PTH,ComponentDrill
T5C0.0472
; #@! TA.AperFunction,Plated,PTH,ComponentDrill
T6C0.1693
%
G90
G05
T1
X2.56Y-3.59
X2.66Y-3.07
X2.685Y-3.351
X2.76Y-3.325
X2.76Y-3.6
X2.83Y-3.21
X2.86Y-2.96
X2.88Y-3.1
X2.995Y-3.5784
X3.1Y-3.2573
X3.21Y-2.895
X3.23Y-3.3989
X3.295Y-3.2988
X3.3105Y-3.6145
X3.315Y-3.925
X3.325Y-3.16
X3.335Y-3.685
X3.3634Y-3.1466
X3.39Y-4.03
X3.39Y-4.13
X3.42Y-3.08
X3.43Y-4.03
X3.43Y-4.13
X3.445Y-3.3
X3.455Y-3.1872
X3.47Y-3.25
X3.48Y-3.42
X3.4867Y-3.6683
X3.52Y-3.49
X3.55Y-3.16
X3.61Y-3.19
X3.635Y-2.73
X3.675Y-3.19
X3.715Y-3.845
X3.72Y-3.75
X3.745Y-3.365
X3.75Y-3.5
X3.775Y-3.2
X3.8084Y-3.6125
X3.82Y-2.86
X3.85Y-3.135
X3.8506Y-3.8119
X3.9116Y-3.42
X3.94Y-3.205
X4.02Y-3.34
X4.03Y-3.835
X4.056Y-3.525
X4.056Y-3.575
X4.058Y-3.427
T3
X3.485Y-3.785
X3.535Y-3.785
X3.585Y-3.785
T4
X2.5Y-2.7425
X2.5Y-2.9
T5
X2.98Y-4.0074
X3.1178Y-4.0074
T6
X3.38Y-2.255
X3.38Y-5.7983
T2
G00X3.6998Y-3.8988
M15
G01X3.6998Y-3.9421
M16
G05
G00X3.6998Y-4.0732
M15
G01X3.6998Y-4.0968
M16
G05
G00X4.04Y-3.8988
M15
G01X4.04Y-3.9421
M16
G05
G00X4.04Y-4.0732
M15
G01X4.04Y-4.0968
M16
G05
T0
M30
